mtllib materials.mtl
o Defeatured_2F_85_PAD_OPEN_fingertipsstep_Cod_Gray

usemtl Cod_Gray
v -0.060057446360588074 0.11442073434591293 -2.02223932315327e-14
v -0.059967149049043655 0.11442072689533234 0.0006858704728074372
v -0.05970241501927376 0.11442071944475174 0.0013249999610707164
v -0.059281278401613235 0.11442069709300995 0.001873833010904491
v -0.058732446283102036 0.11442067474126816 0.0022949674166738987
v -0.05809331685304642 0.11442064493894577 0.002559703541919589
v -0.057407446205616 0.11442061513662338 0.0026499999221414328
v -0.05672157555818558 0.114420585334301 0.002559703541919589
v -0.05608244612812996 0.11442055553197861 0.0022949674166738987
v -0.05553361400961876 0.11442053318023682 0.001873833010904491
v -0.055112481117248535 0.11442051082849503 0.0013249999610707164
v -0.05484774336218834 0.11442050337791443 0.0006858704728074372
v -0.05475744605064392 0.11442049592733383 -2.0223441858321402e-14
v -0.05484774336218834 0.11442050337791443 -0.0006858704728074372
v -0.055112481117248535 0.11442051082849503 -0.0013249999610707164
v -0.05553361400961876 0.11442053318023682 -0.001873833010904491
v -0.05608244612812996 0.11442055553197861 -0.0022949674166738987
v -0.05672157555818558 0.114420585334301 -0.002559703541919589
v -0.057407446205616 0.11442061513662338 -0.0026499999221414328
v -0.05809331685304642 0.11442064493894577 -0.002559703541919589
v -0.058732446283102036 0.11442067474126816 -0.0022949674166738987
v -0.059281278401613235 0.11442069709300995 -0.001873833010904491
v -0.05970241501927376 0.11442071944475174 -0.0013249999610707164
v -0.059967149049043655 0.11442072689533234 -0.0006858704728074372
v -0.059967149049043655 0.11442173272371292 0.0006858704728074372
v -0.060057446360588074 0.11442173272371292 -2.0216387767936668e-14
v -0.05970241501927376 0.11442171782255173 0.0013249999610707164
v -0.059281278401613235 0.11442169547080994 0.001873833010904491
v -0.058732446283102036 0.11442167311906815 0.0022949674166738987
v -0.05809331685304642 0.11442164331674576 0.002559703541919589
v -0.057407446205616 0.11442161351442337 0.0026499999221414328
v -0.05672157555818558 0.11442158371210098 0.002559703541919589
v -0.05608244612812996 0.1144215539097786 0.0022949674166738987
v -0.05553361400961876 0.1144215315580368 0.001873833010904491
v -0.055112481117248535 0.11442150920629501 0.0013249999610707164
v -0.05484774336218834 0.11442150175571442 0.0006858704728074372
v -0.05475744605064392 0.11442149430513382 -2.0223441858321402e-14
v -0.05484774336218834 0.11442150175571442 -0.0006858704728074372
v -0.055112481117248535 0.11442150920629501 -0.0013249999610707164
v -0.05553361400961876 0.1144215315580368 -0.001873833010904491
v -0.05608244612812996 0.1144215539097786 -0.0022949674166738987
v -0.05672157555818558 0.11442158371210098 -0.002559703541919589
v -0.057407446205616 0.11442161351442337 -0.0026499999221414328
v -0.05809331685304642 0.11442164331674576 -0.002559703541919589
v -0.058732446283102036 0.11442167311906815 -0.0022949674166738987
v -0.059281278401613235 0.11442169547080994 -0.001873833010904491
v -0.05970241501927376 0.11442171782255173 -0.0013249999610707164
v -0.059967149049043655 0.11442173272371292 -0.0006858704728074372
v -0.058572132140398026 0.11442066729068756 0.004346666391938925
v -0.057407446205616 0.11442061513662338 0.0044999998062849045
v -0.05624276027083397 0.1144205629825592 0.004346666391938925
v -0.06058942899107933 0.11442075669765472 0.0031819804571568966
v -0.059657447040081024 0.11442071944475174 0.003897114424034953
v -0.05515744537115097 0.11442051082849503 0.003897114424034953
v -0.053510334342718124 0.11442044377326965 0.0022499999031424522
v -0.053060781210660934 0.11442042142152786 0.0011646857019513845
v -0.05290744826197624 0.11442041397094727 -2.022537986970472e-14
v -0.053060781210660934 0.11442042142152786 -0.0011646857019513845
v -0.057407446205616 0.11442061513662338 -0.0044999998062849045
v -0.058572132140398026 0.11442066729068756 -0.004346666391938925
v -0.06175411492586136 0.1144208088517189 0.0011646857019513845
v -0.06130456179380417 0.11442078649997711 0.0022499999031424522
v -0.05422546714544296 0.11442047357559204 0.0031819804571568966
v -0.053510334342718124 0.11442044377326965 -0.0022499999031424522
v -0.05422546714544296 0.11442047357559204 -0.0031819804571568966
v -0.05515744537115097 0.11442051082849503 -0.003897114424034953
v -0.05624276027083397 0.1144205629825592 -0.004346666391938925
v -0.059657447040081024 0.11442071944475174 -0.003897114424034953
v -0.06130456179380417 0.11442078649997711 -0.0022499999031424522
v -0.06175411492586136 0.1144208088517189 -0.0011646857019513845
v -0.06058942899107933 0.11442075669765472 -0.0031819804571568966
v -0.06190744787454605 0.1144208163022995 -2.021340112976465e-14
v -0.06100999191403389 0.11967466026544571 -0.002696289448067546
v -0.06055918335914612 0.11999335139989853 -0.003152306890115142
v -0.061726879328489304 0.11889445036649704 -0.0012612579157575965
v -0.06130433827638626 0.11939365416765213 -0.0022499999031424522
v -0.06186731159687042 0.11869461089372635 -0.0005982614238746464
v -0.06175391376018524 0.11885755509138107 -0.0011646857019513845
v -0.06190725788474083 0.11863374710083008 -2.0794096425216096e-14
v -0.06186762824654579 0.11869413405656815 0.0005958849797025323
v -0.06174759194254875 0.11886496841907501 0.0011633391259238124
v -0.061726879328489304 0.11889445036649704 0.0012612579157575965
v -0.060995761305093765 0.11965812742710114 0.002652129391208291
v -0.06130433827638626 0.11939365416765213 0.0022499999031424522
v -0.06014479696750641 0.12028629332780838 0.0035714819096028805
v -0.060589179396629333 0.12000661343336105 0.0031819804571568966
v -0.05965717136859894 0.12055853754281998 0.003897114424034953
v -0.05857183039188385 0.12116450071334839 0.004346666391938925
v -0.057407114654779434 0.1218147799372673 0.0044999998062849045
v -0.05624240264296532 0.12246505916118622 0.004346666391938925
v -0.05515706166625023 0.12307102233171463 0.003897114424034953
v -0.05422505736351013 0.12359137088060379 0.0031819804571568966
v -0.05383693799376488 0.12380806356668472 0.0027394264470785856
v -0.053249552845954895 0.12413600832223892 0.0017220753943547606
v -0.0535099059343338 0.12399065494537354 0.0022499999031424522
v -0.05294550210237503 0.12430576980113983 0.000587367860134691
v -0.053060341626405716 0.1242416501045227 0.0011646857019513845
v -0.05294550210237503 0.12430576980113983 -0.000587367860134691
v -0.052907004952430725 0.12432726472616196 -2.022351639722076e-14
v -0.053249552845954895 0.12413600832223892 -0.0017220753943547606
v -0.053060341626405716 0.1242416501045227 -0.0011646857019513845
v -0.05383693799376488 0.12380806356668472 -0.0027394264470785856
v -0.0535099059343338 0.12399065494537354 -0.0022499999031424522
v -0.05422505736351013 0.12359137088060379 -0.0031819804571568966
v -0.05515706166625023 0.12307102233171463 -0.003897114424034953
v -0.05624240264296532 0.12246505916118622 -0.004346666391938925
v -0.057407114654779434 0.1218147799372673 -0.0044999998062849045
v -0.05857183039188385 0.12116450071334839 -0.004346666391938925
v -0.05965717136859894 0.12055853754281998 -0.003897114424034953
v -0.06014479696750641 0.12028628587722778 -0.003571480745449662
v -0.06270737946033478 0.11592084914445877 -0.007300000172108412
v -0.06270737946033478 0.11592084914445877 0.007300000172108412
v -0.06259506940841675 0.11697443574666977 0.007300000172108412
v -0.06259506940841675 0.11697443574666977 -0.007300000172108412
v -0.06226326897740364 0.11798069626092911 0.007300000172108412
v -0.06100999191403389 0.11967466026544571 0.007300000172108412
v -0.06014479696750641 0.12028629332780838 0.007300000172108412
v -0.061726879328489304 0.11889445036649704 0.007300000172108412
v -0.061726879328489304 0.11889445036649704 -0.007300000172108412
v -0.06226326897740364 0.11798069626092911 -0.007300000172108412
v -0.06100999191403389 0.11967466026544571 -0.007300000172108412
v -0.06014479696750641 0.12028629332780838 -0.007300000172108412
v -0.06270762532949448 0.11042085289955139 -0.007300000172108412
v -0.06270762532949448 0.11042085289955139 0.007300000172108412
v -0.06190738081932068 0.11592081934213638 -0.008100000210106373
v -0.06190762668848038 0.11042081564664841 -0.008100000210106373
v -0.059754811227321625 0.11958778649568558 -0.008100000210106373
v -0.06048157438635826 0.1190740168094635 -0.008100000210106373
v -0.06108376011252403 0.11841864138841629 -0.008100000210106373
v -0.061534326523542404 0.1176510900259018 -0.008100000210106373
v -0.06181303784251213 0.11680582910776138 -0.008100000210106373
v -0.05269693210721016 0.12352830916643143 -0.008100000210106373
v -0.05308691784739494 0.12422680854797363 -0.007300000172108412
v -0.050437625497579575 0.11042030155658722 -0.008100000210106373
v -0.050965502858161926 0.12517687678337097 -0.008100000210106373
v -0.050460610538721085 0.12627089023590088 -0.008100000210106373
v -0.05172693729400635 0.12424307316541672 -0.008100000210106373
v -0.05043691396713257 0.12634800374507904 -0.008100000210106373
v -0.05041356384754181 0.12687517702579498 -0.008035383187234402
v -0.050166454166173935 0.12742257118225098 -0.008179432712495327
v -0.0501890555024147 0.12733276188373566 -0.008172794245183468
v -0.05065813660621643 0.12633341550827026 -0.007892816327512264
v -0.050313010811805725 0.12684029340744019 -0.008136389777064323
v -0.0509425513446331 0.12596622109413147 -0.007787606678903103
v -0.051362115889787674 0.1254245638847351 -0.007632403168827295
v -0.051651060581207275 0.1251869797706604 -0.007558014709502459
v -0.052197717130184174 0.12473750859498978 -0.007417280692607164
v -0.05249938368797302 0.124554842710495 -0.007356205489486456
v -0.05010100454092026 0.12773479521274567 -0.008261560462415218
v -0.050072330981492996 0.127871572971344 -0.008297538384795189
v -0.050004612654447556 0.11042028665542603 -0.008349999785423279
v -0.05008407309651375 0.11042028665542603 -0.008246446959674358
v -0.04995466396212578 0.11042027920484543 -0.008470590226352215
v -0.0500207357108593 0.12811768054962158 -0.008362280204892159
v -0.0499664768576622 0.1283765286207199 -0.008430366404354572
v -0.04993762448430061 0.11042027920484543 -0.00860000029206276
v -0.04995907098054886 0.12850895524024963 -0.008471664041280746
v -0.04993681609630585 0.12890680134296417 -0.008595735765993595
v -0.050308216363191605 0.11042029410600662 -0.008117036893963814
v -0.050187624990940094 0.11042029410600662 -0.00816698744893074
v -0.049936797469854355 0.1289202868938446 -0.00860000029206276
v -0.06190738081932068 0.11592081934213638 0.008100000210106373
v -0.06190762668848038 0.11042081564664841 0.008100000210106373
v -0.06181303784251213 0.11680582910776138 0.008100000210106373
v -0.061534326523542404 0.1176510900259018 0.008100000210106373
v -0.06108376011252403 0.11841864138841629 0.008100000210106373
v -0.06048157438635826 0.1190740168094635 0.008100000210106373
v -0.059754811227321625 0.11958778649568558 0.008100000210106373
v -0.05249938368797302 0.124554842710495 0.007356205489486456
v -0.05308691784739494 0.12422680854797363 0.007300000172108412
v -0.05269693210721016 0.12352830916643143 0.008100000210106373
v -0.050437625497579575 0.11042030155658722 0.008100000210106373
v -0.05043691396713257 0.12634800374507904 0.008100000210106373
v -0.050460610538721085 0.12627089023590088 0.008100000210106373
v -0.05172693729400635 0.12424307316541672 0.008100000210106373
v -0.050965502858161926 0.12517687678337097 0.008100000210106373
v -0.0499664768576622 0.1283765286207199 0.008430366404354572
v -0.049955785274505615 0.12856771051883698 0.008489987812936306
v -0.04993681609630585 0.12890680134296417 0.008595735765993595
v -0.05006660148501396 0.1278989017009735 0.00830473005771637
v -0.050072330981492996 0.127871572971344 0.008297538384795189
v -0.04999784007668495 0.12822692096233368 0.008391013368964195
v -0.049936797469854355 0.1289202868938446 0.00860000029206276
v -0.050166454166173935 0.12742257118225098 0.008179432712495327
v -0.05013535916805267 0.12757089734077454 0.008218447677791119
v -0.05038091167807579 0.12686043977737427 0.008034502156078815
v -0.05068149417638779 0.12634839117527008 0.007894549518823624
v -0.05091729760169983 0.12594668567180634 0.0077847568318247795
v -0.05138028785586357 0.12544280290603638 0.0076356325298547745
v -0.05163418501615524 0.12516647577285767 0.007553853560239077
v -0.05221128463745117 0.12475850433111191 0.007422019727528095
v -0.05033072456717491 0.12676990032196045 0.008131186477839947
v -0.05022444576025009 0.1271921694278717 0.008162400685250759
v -0.04993762448430061 0.11042027920484543 0.00860000029206276
v -0.049950163811445236 0.11042027920484543 0.008488739840686321
v -0.04998714104294777 0.11042028665542603 0.00838305801153183
v -0.050125882029533386 0.11042028665542603 0.008209084160625935
v -0.050046712160110474 0.11042028665542603 0.008288254961371422
v -0.050220683217048645 0.11042029410600662 0.008149515837430954
v -0.05032636597752571 0.11042030155658722 0.008112535811960697
v -0.04355012625455856 0.11041999608278275 0.008999999612569809
v -0.04993762448430061 0.11042027920484543 0.008999999612569809
v -0.04355012625455856 0.11041999608278275 -0.008999999612569809
v -0.04993762448430061 0.11042027920484543 -0.008999999612569809
v -0.0435500368475914 0.112419992685318 0.010999999940395355
v -0.0479375384747982 0.11242019385099411 0.010999999940395355
v -0.04838259890675545 0.11197517067193985 0.010949855670332909
v -0.04355005547404289 0.11197495460510254 0.010949855670332909
v -0.048805344849824905 0.11155246198177338 0.01080193743109703
v -0.043550074100494385 0.11155223101377487 0.01080193743109703
v -0.04918457195162773 0.11117326468229294 0.010563663206994534
v -0.04355009272694588 0.11117301881313324 0.010563663206994534
v -0.049501270055770874 0.11085660010576248 0.010246980004012585
v -0.04355010762810707 0.11085633188486099 0.010246980004012585
v -0.04973955452442169 0.11061833053827286 0.009867767803370953
v -0.04982538893818855 0.11053250730037689 0.009660557843744755
v -0.043550122529268265 0.11047013849020004 0.009445041418075562
v -0.043550118803977966 0.11061805486679077 0.009867767803370953
v -0.049925051629543304 0.11043285578489304 0.009223928675055504
v -0.04988747835159302 0.11047042161226273 0.009445041418075562
v -0.04354860261082649 0.14441999793052673 0.010999999940395355
v -0.047936104238033295 0.14442019164562225 0.010999999940395355
v -0.04987765848636627 0.14442028105258942 0.009443948976695538
v -0.04993610456585884 0.14442028105258942 0.008999999612569809
v -0.04972514137625694 0.14442026615142822 0.009862423874437809
v -0.04986795410513878 0.14442028105258942 0.009517638012766838
v -0.04966815561056137 0.14442026615142822 0.009999999776482582
v -0.049486469477415085 0.14442026615142822 0.010236776433885098
v -0.04917288199067116 0.14442025125026703 0.010550365783274174
v -0.0493503175675869 0.14442025125026703 0.010414213873445988
v -0.04879852756857872 0.14442023634910583 0.010789036750793457
v -0.04893610253930092 0.14442023634910583 0.010732050985097885
v -0.0483800545334816 0.14442020654678345 0.010941552929580212
v -0.048453740775585175 0.14442022144794464 0.010931851342320442
v -0.04354855790734291 0.1454552710056305 0.010863703675568104
v -0.04793606325984001 0.14531026780605316 0.010899711400270462
v -0.04793605953454971 0.14545086026191711 0.010850520804524422
v -0.04354851320385933 0.14642000198364258 0.010464102029800415
v -0.04793602600693703 0.1461557298898697 0.01060387585312128
v -0.04793601483106613 0.1464083045721054 0.01044517382979393
v -0.043548475950956345 0.14724841713905334 0.009828426875174046
v -0.04793599247932434 0.14691415429115295 0.010127325542271137
v -0.04793597757816315 0.1472308337688446 0.009810642339289188
v -0.04793596267700195 0.14754751324653625 0.00949395913630724
v -0.043548449873924255 0.14788410067558289 0.008999999612569809
v -0.04793595150113106 0.14786536991596222 0.00898810662329197
v -0.04793594405055046 0.1480240672826767 0.008735534735023975
v -0.04354843124747276 0.1482837051153183 0.008035276085138321
v -0.047935932874679565 0.14827071130275726 0.00803066324442625
v -0.04793592914938927 0.14831990003585815 0.007890083827078342
v -0.043548423796892166 0.14841999113559723 0.007000000216066837
v -0.04793592542409897 0.14842018485069275 0.007000000216066837
v -0.049867842346429825 0.14693792164325714 0.007000000216066837
v -0.04993601515889168 0.14642028510570526 0.007000000216066837
v -0.04993601515889168 0.14637014269828796 0.00744504202157259
v -0.049936022609472275 0.14622221887111664 0.007867767475545406
v -0.04993603378534317 0.14598394930362701 0.008246979676187038
v -0.049936048686504364 0.14566725492477417 0.008563662879168987
v -0.04993606358766556 0.14528805017471313 0.008801938034594059
v -0.04993608593940735 0.14486531913280487 0.008949856273829937
v -0.049668021500110626 0.147420272231102 0.007000000216066837
v -0.04935016483068466 0.14783446490764618 0.007000000216066837
v -0.048935938626527786 0.14815229177474976 0.007000000216066837
v -0.04845356568694115 0.14835207164287567 0.007000000216066837
v -0.04845370352268219 0.1452951282262802 0.010833271779119968
v -0.048453666269779205 0.1461261808872223 0.010542475618422031
v -0.04845363274216652 0.1468716859817505 0.01007404550909996
v -0.04845360293984413 0.14749425649642944 0.009451469406485558
v -0.04845358431339264 0.14796268939971924 0.008705966174602509
v -0.048453569412231445 0.14825348556041718 0.007874919101595879
v -0.048936065286397934 0.14525069296360016 0.010638480074703693
v -0.04893603175878525 0.14603951573371887 0.01036246120929718
v -0.04893600195646286 0.14674712717533112 0.009917834773659706
v -0.04893597215414047 0.14733807742595673 0.009326895698904991
v -0.04893595352768898 0.14778269827365875 0.008619275875389576
v -0.048935942351818085 0.1480587124824524 0.007830459624528885
v -0.04935028403997421 0.14517998695373535 0.01032861229032278
v -0.049350250512361526 0.145901620388031 0.010076100006699562
v -0.04935022071003914 0.14654898643493652 0.009669339284300804
v -0.04935019835829735 0.14708960056304932 0.00912872701883316
v -0.049350179731845856 0.14749635756015778 0.008481372147798538
v -0.04935016855597496 0.14774887263774872 0.007759734056890011
v -0.04966812580823898 0.1450878381729126 0.009924783371388912
v -0.049668096005916595 0.1457219272851944 0.00970290694385767
v -0.049668069928884506 0.14629073441028595 0.009345494210720062
v -0.049668051302433014 0.14676576852798462 0.008870469406247139
v -0.04966803267598152 0.14712317287921906 0.00830165110528469
v -0.049668025225400925 0.14734505116939545 0.007667562924325466
v -0.04986793175339699 0.1449805051088333 0.009454515762627125
v -0.0498679056763649 0.1455126404762268 0.009268313646316528
v -0.049867887049913406 0.14598999917507172 0.008968369103968143
v -0.049867868423461914 0.14638864994049072 0.008569722063839436
v -0.04986785352230072 0.14668859541416168 0.008092362433671951
v -0.04986784607172012 0.14687480032444 0.007560227066278458
v -0.043548423796892166 0.14841999113559723 -0.007000000216066837
v -0.04793592542409897 0.14842018485069275 -0.007000000216066837
v -0.04354860261082649 0.14441999793052673 -0.010999999940395355
v -0.04354855790734291 0.1454552710056305 -0.010863703675568104
v -0.04354851320385933 0.14642000198364258 -0.010464102029800415
v -0.043550118803977966 0.11061805486679077 -0.009867767803370953
v -0.04355010762810707 0.11085633188486099 -0.010246980004012585
v -0.04355009272694588 0.11117301881313324 -0.010563663206994534
v -0.043548449873924255 0.14788410067558289 -0.008999999612569809
v -0.04354843124747276 0.1482837051153183 -0.008035276085138321
v -0.043548475950956345 0.14724841713905334 -0.009828426875174046
v -0.043550074100494385 0.11155223101377487 -0.01080193743109703
v -0.0435500368475914 0.112419992685318 -0.010999999940395355
v -0.04355005547404289 0.11197495460510254 -0.010949855670332909
v -0.043550122529268265 0.11047013849020004 -0.009445041418075562
v -0.049925051629543304 0.11043285578489304 -0.009223928675055504
v -0.04982538893818855 0.11053250730037689 -0.009660557843744755
v -0.04988747835159302 0.11047042161226273 -0.009445041418075562
v -0.04973955452442169 0.11061833053827286 -0.009867767803370953
v -0.049501270055770874 0.11085660010576248 -0.010246980004012585
v -0.04918457195162773 0.11117326468229294 -0.010563663206994534
v -0.048805344849824905 0.11155246198177338 -0.01080193743109703
v -0.04838259890675545 0.11197517067193985 -0.010949855670332909
v -0.0479375384747982 0.11242019385099411 -0.010999999940395355
v -0.047936104238033295 0.14442019164562225 -0.010999999940395355
v -0.04993610456585884 0.14442028105258942 -0.008999999612569809
v -0.049936048686504364 0.14566725492477417 -0.008563662879168987
v -0.04993606358766556 0.14528805017471313 -0.008801938034594059
v -0.049936022609472275 0.14622221887111664 -0.007867767475545406
v -0.04993603378534317 0.14598394930362701 -0.008246979676187038
v -0.04993601515889168 0.14637014269828796 -0.00744504202157259
v -0.04993601515889168 0.14642028510570526 -0.007000000216066837
v -0.04993608593940735 0.14486531913280487 -0.008949856273829937
v -0.04793592914938927 0.14831990003585815 -0.007890083827078342
v -0.047935932874679565 0.14827071130275726 -0.00803066324442625
v -0.04793594405055046 0.1480240672826767 -0.008735534735023975
v -0.04793595150113106 0.14786536991596222 -0.00898810662329197
v -0.04793596267700195 0.14754751324653625 -0.00949395913630724
v -0.04793597757816315 0.1472308337688446 -0.009810642339289188
v -0.04793599247932434 0.14691415429115295 -0.010127325542271137
v -0.04793601483106613 0.1464083045721054 -0.01044517382979393
v -0.04793602600693703 0.1461557298898697 -0.01060387585312128
v -0.04793605953454971 0.14545086026191711 -0.010850520804524422
v -0.04793606325984001 0.14531026780605316 -0.010899711400270462
v -0.04879852756857872 0.14442023634910583 -0.010789036750793457
v -0.048453740775585175 0.14442022144794464 -0.010931851342320442
v -0.04917288199067116 0.14442025125026703 -0.010550365783274174
v -0.04893610253930092 0.14442023634910583 -0.010732050985097885
v -0.0493503175675869 0.14442025125026703 -0.010414213873445988
v -0.049486469477415085 0.14442026615142822 -0.010236776433885098
v -0.04972514137625694 0.14442026615142822 -0.009862423874437809
v -0.04966815561056137 0.14442026615142822 -0.009999999776482582
v -0.04987765848636627 0.14442028105258942 -0.009443948976695538
v -0.04986795410513878 0.14442028105258942 -0.009517638012766838
v -0.0483800545334816 0.14442020654678345 -0.010941552929580212
v -0.049867842346429825 0.14693792164325714 -0.007000000216066837
v -0.049668021500110626 0.147420272231102 -0.007000000216066837
v -0.04935016483068466 0.14783446490764618 -0.007000000216066837
v -0.048935938626527786 0.14815229177474976 -0.007000000216066837
v -0.04845356568694115 0.14835207164287567 -0.007000000216066837
v -0.04986784607172012 0.14687480032444 -0.007560227066278458
v -0.049668025225400925 0.14734505116939545 -0.007667562924325466
v -0.048935942351818085 0.1480587124824524 -0.007830459624528885
v -0.048453569412231445 0.14825348556041718 -0.007874919101595879
v -0.04845358431339264 0.14796268939971924 -0.008705966174602509
v -0.04845360293984413 0.14749425649642944 -0.009451469406485558
v -0.04845363274216652 0.1468716859817505 -0.01007404550909996
v -0.048453666269779205 0.1461261808872223 -0.010542475618422031
v -0.04845370352268219 0.1452951282262802 -0.010833271779119968
v -0.048936065286397934 0.14525069296360016 -0.010638480074703693
v -0.04893603175878525 0.14603951573371887 -0.01036246120929718
v -0.04893600195646286 0.14674712717533112 -0.009917834773659706
v -0.04893597215414047 0.14733807742595673 -0.009326895698904991
v -0.04893595352768898 0.14778269827365875 -0.008619275875389576
v -0.04935016855597496 0.14774887263774872 -0.007759734056890011
v -0.049350179731845856 0.14749635756015778 -0.008481372147798538
v -0.04935019835829735 0.14708960056304932 -0.00912872701883316
v -0.04935022071003914 0.14654898643493652 -0.009669339284300804
v -0.049350250512361526 0.145901620388031 -0.010076100006699562
v -0.04935028403997421 0.14517998695373535 -0.01032861229032278
v -0.04966812580823898 0.1450878381729126 -0.009924783371388912
v -0.049668096005916595 0.1457219272851944 -0.00970290694385767
v -0.049668069928884506 0.14629073441028595 -0.009345494210720062
v -0.049668051302433014 0.14676576852798462 -0.008870469406247139
v -0.04966803267598152 0.14712317287921906 -0.00830165110528469
v -0.04986785352230072 0.14668859541416168 -0.008092362433671951
v -0.049867868423461914 0.14638864994049072 -0.008569722063839436
v -0.049867887049913406 0.14598999917507172 -0.008968369103968143
v -0.0498679056763649 0.1455126404762268 -0.009268313646316528
v -0.04986793175339699 0.1449805051088333 -0.009454515762627125
vt 3.814790964126587 -1.9761556592128645e-17
vt 4.936788558959961 0.0015549581730738282
vt 0.00927792489528656 -0.0008591738296672702
vt 0.0043875002302229404 -0.014000000432133675
vt 5.759796619415283 2.840637432241044e-15
vt 0.008260573260486126 -0.0015319040976464748
vt 4.450589656829834 -0.025955505669116974
vt 0.008750000037252903 -0.0011573531664907932
vt 4.450589656829834 -0.03400000184774399
vt -0.0043860673904418945 0.03200019523501396
vt 1.5707963705062866 -0.6733564734458923
vt 5.759586334228516 -0.029027137905359268
vt 0.4487989544868469 -1.3089969158172607
vt -0.05489373579621315 -0.029344279319047928
vt 3.665191411972046 -0.03400000184774399
vt 0.013249999843537807 -0.0011573531664907932
vt 3.903663158416748 -0.0008926292648538947
vt 0.0028610273730009794 -0.0011295010335743427
vt 1.832595705986023 -6.938893903907228e-18
vt 3.915743350982666 0.0033643676433712244
vt 4.974188327789307 -0.0339989997446537
vt 4.974188327789307 -0.02725616656243801
vt -0.0038019376806914806 -0.03286776691675186
vt 4.263589859008789 -1.9761556592128645e-17
vt -0.0022499999031424522 0.006547114346176386
vt 0.0011646857019513845 -0.0016966662369668484
vt 0.044872771948575974 -0.02214740216732025
vt 1.5707963705062866 -0.0339989997446537
vt 0.7853981852531433 -1.7952407613329273e-14
vt 3.469446951953614e-15 4.163338989322297e-17
vt 4.936788558959961 -1.5707963705062866
vt 0.7215590476989746 -0.0021750000305473804
vt 0.004388932604342699 -0.03199980407953262
vt 4.513359546661377 -0.00018393468053545803
vt 0.017100000753998756 0.006887500174343586
vt 3.6508424282073975 -0.00019999999494757503
vt 0.0006858704728074372 0.005209703464061022
vt 0.0 -0.0339989997446537
vt 0.4487989544868469 -0.2617993950843811
vt 0.4487989544868469 -0.5235987901687622
vt -0.001873833010904491 0.004523832816630602
vt 4.651575565338135 -0.00012056763807777315
vt 0.9168061017990112 -0.02813444659113884
vt 0.7215590476989746 -0.0029750000685453415
vt 5.161188125610352 3.228648614059899e-15
vt 0.0008999999845400453 0.018357500433921814
vt 5.048988342285156 0.006275266874581575
vt 1.5707963705062866 -2.2925687871266486e-17
vt -0.003464101580902934 0.0020000000949949026
vt -0.0044999998062849045 0.0026499999221414328
vt 0.22439947724342346 -1.0471975803375244
vt 6.058785915374756 -1.9761556592128645e-17
vt 4.71238899230957 -0.0339989997446537
vt 4.188790321350098 -0.03400000184774399
vt 3.9906539916992188 0.018558014184236526
vt 5.161188125610352 -1.3089969158172607
vt 0.0 0.0
vt 0.2617993950843811 0.004000000189989805
vt 4.48798942565918 0.006337355822324753
vt 4.600189208984375 0.006374924443662167
vt 5.058526992797852 -0.020043756812810898
vt 2.9171931743621826 0.0043875002302229404
vt 5.0188822746276855 0.0027678159531205893
vt 6.022075176239014 0.021580010652542114
vt 0.002400000113993883 -0.019500000402331352
vt 3.7785205841064453 0.0032152433414012194
vt 0.006653334014117718 -0.006954786367714405
vt 4.422701835632324 -0.00019999999494757503
vt -0.008083399385213852 0.0030759144574403763
vt 4.892944812774658 0.002892552874982357
vt 0.05549592152237892 -0.029999656602740288
vt 4.71238899230957 -1.9762178631949285e-17
vt -0.001035276218317449 0.003863703226670623
vt 0.017100000753998756 0.018357500433921814
vt 5.497786998748779 -0.0339989997446537
vt 5.834386348724365 -1.0471975803375244
vt -0.003863703226670623 0.001035276218317449
vt 4.936788558959961 -1.9761556592128645e-17
vt 0.05622519925236702 -0.031612467020750046
vt 5.834386348724365 -0.03799999877810478
vt 0.4246186316013336 0.003700000001117587
vt 0.8491899967193604 0.008347870782017708
vt 0.056319788098335266 -0.03799748048186302
vt 5.116908550262451 0.002645724918693304
vt 1.7831056118011475 0.0010000000474974513
vt 2.6179938316345215 -0.03400000184774399
vt 1.121997356414795 0.001132232486270368
vt 6.2831854820251465 0.02207229845225811
vt 4.71238899230957 3.228648614059899e-15
vt 0.003700000001117587 -0.03799999877810478
vt 0.22439947724342346 -1.3089969158172607
vt 3.814790964126587 0.0056344796903431416
vt 9.345808168446267e-17 -0.5235987901687622
vt -0.0031819804571568966 -0.0005319805350154638
vt 5.161188125610352 -1.0471975803375244
vt 0.014897114597260952 -0.003043843200430274
vt 2.4870941638946533 -0.024612389504909515
vt 0.4487989544868469 -1.5707963705062866
vt 0.018300000578165054 -0.032499998807907104
vt 4.71238899230957 -0.8974398970603943
vt 4.263589859008789 0.006189437583088875
vt 0.7853981852531433 0.004000000189989805
vt -0.05594648793339729 -0.030767207965254784
vt 2.0941848754882812 0.0043875002302229404
vt 1.5707963705062866 -1.0471975803375244
vt 0.017246980220079422 -0.03356366232037544
vt 6.058785915374756 3.228648614059899e-15
vt 0.6277803182601929 0.012164685875177383
vt 4.973926544189453 4.446756531110941e-15
vt 0.5235987901687622 0.004000000189989805
vt 5.405017852783203 0.02054871991276741
vt 5.614457130432129 -0.020849399268627167
vt 0.5235987901687622 -0.029027137905359268
vt 0.8492372632026672 0.003700000001117587
vt 6.158268339717665e-17 0.00420728512108326
vt 1.5707963705062866 -1.5707963705062866
vt 5.833992004394531 0.03400000184774399
vt 4.188790321350098 -0.025349494069814682
vt 0.003897114424034953 0.004900000058114529
vt 1.346396803855896 -1.5707963705062866
vt 1.0615462064743042 0.014571480453014374
vt 0.22439947724342346 -0.7853981852531433
vt 4.974188327789307 0.03400000184774399
vt 2.4683942794799805 0.0043875002302229404
vt 3.4033920764923096 -0.0339989997446537
vt 6.058785915374756 5.014417547499761e-05
vt 0.017117036506533623 0.006758090574294329
vt 0.004346666391938925 0.0038146856240928173
vt 5.834386348724365 0.0052552674897015095
vt 6.2831854820251465 0.03400000184774399
vt 0.7678253054618835 0.008750000037252903
vt 5.354524612426758 0.0024180333130061626
vt 2.24399471282959 0.0043875002302229404
vt -0.003897114424034953 0.004900000058114529
vt -0.0022949674166738987 0.003975000232458115
vt 0.4246186316013336 0.018300000578165054
vt 6.2831854820251465 -0.03799999877810478
vt 1.5707963705062866 -0.44919317960739136
vt 3.3659920692443848 0.004832542035728693
vt -0.008083399385213852 0.00420728512108326
vt 5.831247329711914 -0.02122812718153
vt 2.356194496154785 0.0043875002302229404
vt -0.010499733500182629 -0.004207950085401535
vt 0.22439947724342346 -0.2617993950843811
vt 0.2617993950843811 -0.0339989997446537
vt 0.8975979089736938 -0.5235987901687622
vt 3.6852331161499023 0.0031054506544023752
vt -0.0032469795551151037 -0.03356366232037544
vt 3.6508424282073975 -0.0010000000474974513
vt 3.91581130027771 0.018632402643561363
vt 0.011587368324398994 -0.0005109430057927966
vt 4.306079387664795 -0.0005152432713657618
vt 6.02138614654541 -0.0339989997446537
vt 1.9954149723052979 0.0010000000474974513
vt 0.017999999225139618 -5.437388667979158e-15
vt 0.336599200963974 0.00011223334149690345
vt 0.8492372632026672 0.013696289621293545
vt 3.1415927410125732 0.0043875002302229404
vt 3.144289493560791 0.019595736637711525
vt 2.6179938316345215 -0.024429788812994957
vt 0.01794985495507717 -0.032445043325424194
vt 0.673198401927948 -0.2617993950843811
vt 1.1461776494979858 -0.0021750000305473804
vt -0.004346666391938925 0.0038146856240928173
vt 0.003913359250873327 -0.0015449495986104012
vt 0.014000000432133675 0.004000000189989805
vt 5.71176815032959 0.02099771983921528
vt 5.609986782073975 0.0056344796903431416
vt 1.5707963705062866 0.0010000000474974513
vt 1.5707963705062866 0.004000000189989805
vt 1.3089969158172607 -2.2926931950907766e-17
vt 4.450589656829834 -0.0339989997446537
vt 5.607269287109375 0.0022312055807560682
vt 0.8975979089736938 -1.0471975803375244
vt 0.04613909870386124 -0.02417522482573986
vt 1.0471975803375244 -0.0339989997446537
vt 1.3089969158172607 -0.02725616656243801
vt 1.1461776494979858 -0.0029750000685453415
vt -0.002445041900500655 -0.03394985571503639
vt 4.71238899230957 -1.3460042476654053
vt 0.0008874639752320945 0.006776239722967148
vt 0.0020501441322267056 -0.003554958151653409
vt 1.5707963705062866 -3.228648614059899e-15
vt 6.544984817504883 -0.03400000184774399
vt 4.79191780090332 0.0030429894104599953
vt 6.021647930145264 1.9941559034354064e-15
vt -0.04613909870386124 -0.02417522482573986
vt 0.673198401927948 -0.7853981852531433
vt 3.353928565979004 0.002702461089938879
vt 1.5707963705062866 -0.22479204833507538
vt 0.003897114424034953 0.00039999998989515007
vt 0.017999999225139618 -6.491382409899715e-13
vt -0.010499999858438969 0.00420728512108326
vt 1.121997356414795 -1.5707963705062866
vt 1.5707963705062866 -0.2617993950843811
vt 1.5707963705062866 -0.0021750000305473804
vt 4.163336342344337e-17 -0.0018500000005587935
vt 0.673198401927948 0.0043875002302229404
vt 5.609986782073975 -0.2617993950843811
vt 6.2831854820251465 -1.5707963705062866
vt 0.7678253054618835 0.013249999843537807
vt 3.9908299446105957 0.0034461463801562786
vt 5.161188125610352 -0.03799999877810478
vt 4.824588775634766 0.006374924443662167
vt 0.44919317960739136 0.03400000184774399
vt 0.8975979089736938 -1.3089969158172607
vt 2.0195953845977783 0.0043875002302229404
vt 3.9269907474517822 -0.02482910081744194
vt 3.1415927410125732 -0.0339989997446537
vt 0.5233886241912842 0.0043875002302229404
vt 0.2615375518798828 -1.702271780295011e-14
vt 4.71238899230957 0.019500000402331352
vt 3.1415927410125732 4.85722573273506e-17
vt 0.016828427091240883 0.0028284271247684956
vt -0.004000000189989805 1.442529364188705e-13
vt 0.8975979089736938 0.0043875002302229404
vt 0.013739426620304585 -0.0015319040976464748
vt 0.01600000075995922 0.003464101580902934
vt 0.28408530354499817 -0.029526356607675552
vt 0.017801938578486443 -0.03286776691675186
vt 5.270566940307617 0.002507403027266264
vt 0.01600000075995922 -0.03400000184774399
vt 6.02138614654541 0.03799999877810478
vt 0.0007909157429821789 0.006575755309313536
vt 0.007818019948899746 -0.0019764176104217768
vt 5.609986782073975 -0.7853981852531433
vt 0.6364583373069763 -0.02876264601945877
vt 4.71238899230957 -0.2617993950843811
vt 0.509249746799469 -0.0021750000305473804
vt 4.85722573273506e-17 -4.336808689942018e-18
vt 3.1415927410125732 -6.938893903907228e-18
vt 9.345808168446267e-17 -1.0471975803375244
vt 1.346396803855896 0.0043875002302229404
vt 1.121997356414795 -0.7853981852531433
vt 0.018867768347263336 -0.0021980623714625835
vt 1.047407627105713 0.0043875002302229404
vt 3.144289493560791 0.0024042639415711164
vt 5.385587215423584 0.0007530204020440578
vt 0.8975979089736938 -0.7853981852531433
vt 6.149843692779541 -0.02972620353102684
vt 0.0027530204970389605 -0.002436337061226368
vt 0.014181980863213539 -0.0019764176104217768
vt 6.058785915374756 -1.5707963705062866
vt 3.2505593299865723 0.0025696337688714266
vt 0.2618740499019623 -0.02955583669245243
vt 0.01980193704366684 -0.003132232464849949
vt 4.13259220123291 0.018417280167341232
vt 6.02138614654541 -0.03400000184774399
vt 0.0013249999610707164 0.004944967105984688
vt 3.5903916358947754 0.0052552674897015095
vt -0.0013249999610707164 0.004944967105984688
vt 5.834386348724365 -0.7853981852531433
vt 1.3092588186264038 0.0043875002302229404
vt 2.6179938316345215 -6.938893903907228e-18
vt 0.004000000189989805 -0.0020000000949949026
vt 2.094395160675049 -0.0339989997446537
vt 5.551115123125783e-17 0.007149999961256981
vt 4.71238899230957 -0.7853981852531433
vt 4.936788558959961 0.006337355822324753
vt 5.609986782073975 -1.3089969158172607
vt 5.71176815032959 -0.02099771983921528
vt 5.161188125610352 -1.9761556592128645e-17
vt 2.879793167114258 -0.03400000184774399
vt 0.2617993950843811 -0.03400000184774399
vt 6.02138614654541 0.03400000184774399
vt 0.0017000000225380063 0.019157499074935913
vt 4.039190769195557 -1.9761556592128645e-17
vt 1.3089969158172607 0.03400000184774399
vt 0.5235987901687622 -0.03400000184774399
vt 0.9564847350120544 0.007818019948899746
vt 0.002559703541919589 0.0019641295075416565
vt 1.121997356414795 -0.2617993950843811
vt -2.4868995751603507e-14 0.003700000001117587
vt 0.5235987901687622 0.017999999225139618
vt 3.445807456970215 0.0028205676935613155
vt 3.1415927410125732 0.019600000232458115
vt -0.010499999858438969 0.0030759144574403763
vt 0.01686776801943779 -0.03380193933844566
vt 9.345808168446267e-17 -1.3089969158172607
vt 1.121997356414795 -1.3089969158172607
vt 0.002559703541919589 0.0033358705695718527
vt 4.48798942565918 -1.9761556592128645e-17
vt -2.4868995751603507e-14 0.018300000578165054
vt 5.385587215423584 -0.7853981852531433
vt 0.012164685875177383 -0.0006424677558243275
vt 5.385587215423584 -1.0471975803375244
vt 3.5342917442321777 -0.024284418672323227
vt 1.3584870100021362 -0.0021750000305473804
vt 0.014897114597260952 -0.008197830058634281
vt 3.4033920764923096 -0.03400000184774399
vt 3.90252685546875 -0.00019999999494757503
vt 1.9954149723052979 0.00019999999494757503
vt 0.6297232508659363 0.009836660698056221
vt -0.004999733529984951 -0.004207601770758629
vt 0.05631954222917557 -0.032497480511665344
vt 0.7853981852531433 0.017999999225139618
vt 5.385604381561279 -0.020521381869912148
vt 2.094395160675049 -0.03400000184774399
vt 6.058785915374756 -0.7853981852531433
vt 5.773935794830322 0.0021750000305473804
vt 0.01759999990463257 0.006387500092387199
vt 0.0 6.938893903907228e-18
vt 0.0031819804571568966 -0.0005319805350154638
vt 4.936788558959961 -1.0471975803375244
vt 0.015035276301205158 0.003863703226670623
vt 4.937180995941162 0.03400000184774399
vt 1.0471975803375244 -0.027862178161740303
vt 0.01716698706150055 0.006637500133365393
vt 3.9269907474517822 -0.0339989997446537
vt 9.345808168446267e-17 -0.7853981852531433
vt 1.9363459047853004e-15 0.006387500092387199
vt 0.016445042565464973 -0.03394985571503639
vt 6.2831854820251465 -0.03400000184774399
vt -0.0020000000949949026 0.003464101580902934
vt 6.058785915374756 -0.03799999877810478
vt 1.8323339223861694 0.0043875002302229404
vt -0.004346666391938925 0.00148531433660537
vt 5.385745525360107 0.03400000184774399
vt 0.009835314005613327 -0.0006424677558243275
vt -0.0022949674166738987 0.0013249999610707164
vt 0.4487989544868469 -0.7853981852531433
vt 6.058785915374756 -0.2617993950843811
vt 0.01786370389163494 0.001035276218317449
vt 0.6369279623031616 0.003700000001117587
vt -0.044849786907434464 -0.03799799084663391
vt 1.442529364188705e-13 0.004000000189989805
vt -0.04710909351706505 -0.02488998882472515
vt 0.4487989544868469 0.0043875002302229404
vt 6.058785915374756 -1.3089969158172607
vt 5.161188125610352 -0.7853981852531433
vt 9.345808168446267e-17 -0.2617993950843811
vt 0.7853981852531433 -2.2926931950907766e-17
vt 0.0006169418920762837 0.0064370157197117805
vt 0.003554958151653409 -0.0020501441322267056
vt 0.0008999999845400453 0.006887500174343586
vt 0.04484907537698746 -0.02207029052078724
vt 1.3089969158172607 0.004000000189989805
vt 6.2831854820251465 0.0
vt 0.6369279623031616 0.018300000578165054
vt 5.270566940307617 0.0029750000685453415
vt 5.156702995300293 -0.02019336074590683
vt 5.609986782073975 0.00043633702443912625
vt 3.796091079711914 -0.024612389504909515
vt -0.044872771948575974 -0.02214740216732025
vt 5.497786998748779 -0.03400000184774399
vt 1.0615465641021729 0.018300000578165054
vt 5.834386348724365 3.228648614059899e-15
vt 0.0022499999031424522 -0.0012471142690628767
vt 5.759586334228516 0.03400000184774399
vt 4.405895709991455 -0.00019999999494757503
vt 2.2077243328094482 0.0010000000474974513
vt 0.0020000000949949026 -0.004000000189989805
vt 5.609986782073975 3.228648614059899e-15
vt 2.094395160675049 -6.938893903907228e-18
vt 0.019949855282902718 -0.003554958151653409
vt 1.5707963705062866 -1.3089969158172607
vt 0.007102885749191046 -0.008197830058634281
vt -0.13334175944328308 -0.02972620353102684
vt 5.773935794830322 0.0029750000685453415
vt 0.006653334014117718 -0.0042868866585195065
vt 0.5235987901687622 -2.2926931950907766e-17
vt -4.5644911461639737e-17 0.0030759144574403763
vt 1.346396803855896 -1.3089969158172607
vt 3.5903916358947754 -1.9761556592128645e-17
vt 0.6369279623031616 0.012261257506906986
vt 0.004346666391938925 0.00148531433660537
vt 3.665191411972046 -0.024429788812994957
vt 4.71238899230957 -0.03400000184774399
vt 2.2077243328094482 0.00019999999494757503
vt 1.5707963705062866 -0.026605835184454918
vt 5.058526992797852 0.020043756812810898
vt 5.385587215423584 3.228648614059899e-15
vt 1.5707963705062866 -0.0029750000685453415
vt 2.879793167114258 -6.938893903907228e-18
vt 5.002076148986816 0.0029750000685453415
vt 6.058393478393555 0.03400000184774399
vt 4.71238899230957 -0.03799999877810478
vt 5.640714645385742 -0.028746116906404495
vt -0.054166972637176514 -0.028830511495471
vt 0.018300000578165054 -0.03799999877810478
vt 0.0 -0.03400000184774399
vt 6.2831854820251465 -0.5235987901687622
vt -0.002559703541919589 0.0033358705695718527
vt 0.001873833010904491 0.004523832816630602
vt 1.4324388075692696e-06 -0.03200000151991844
vt 0.4487989544868469 -1.0471975803375244
vt 0.0007117448840290308 0.006496584042906761
vt 2.7488934993743896 -0.024284418672323227
vt 1.346396803855896 -0.7853981852531433
vt 1.346396803855896 -1.0471975803375244
vt 5.9465861320495605 0.00011223334149690345
vt 1.346396803855896 -1.6381100509800343e-14
vt 0.000850484415423125 0.006670558359473944
vt 3.7013760078566296e-15 0.03400000184774399
vt 6.058785915374756 -0.5235987901687622
vt 3.566211223602295 0.0029654980171471834
vt 0.8975979089736938 -0.2617993950843811
vt -0.00010726301843533292 -0.00864818412810564
vt -0.2617993950843811 -0.03400000184774399
vt 0.019999999552965164 -0.03799999877810478
vt 5.0188822746276855 0.0029750000685453415
vt 0.0005112604703754187 0.006400036159902811
vt 4.974188327789307 -0.03400000184774399
vt 0.2123093158006668 0.003700000001117587
vt 6.2831854820251465 -1.0471975803375244
vt -1.734723475976807e-18 5.287013888727298e-31
vt 0.0026499999221414328 0.0026499999221414328
vt 0.003700000001117587 -0.008756306022405624
vt 3.010693073272705 -0.02411464788019657
vt 0.0022499999031424522 0.006547114346176386
vt 0.019600000232458115 -0.03799999877810478
vt 0.0013249999610707164 0.0003550326800905168
vt -0.002559703541919589 0.0019641295075416565
vt -0.056319788098335266 -0.03799748048186302
vt 3.4033920764923096 -0.024178769439458847
vt -0.004999999888241291 0.00420728512108326
vt 0.22479204833507538 0.03400000184774399
vt -0.0031819804571568966 0.005831980612128973
vt -0.0026499999221414328 0.0026499999221414328
vt 0.044849786907434464 -0.03799799084663391
vt 4.71238899230957 2.8810078695401314e-17
vt -0.0006858704728074372 0.005209703464061022
vt 4.71238899230957 0.006387500092387199
vt 0.6733564734458923 0.03400000184774399
vt 0.017246447503566742 0.006533946841955185
vt 0.0031819804571568966 0.005831980612128973
vt 0.8974398970603943 0.03400000184774399
vt 4.773202419281006 0.003054432338103652
vt 1.832595705986023 -0.03400000184774399
vt 3.281066417694092 0.0026089863386005163
vt -0.0028284271247684956 0.0028284271247684956
vt 0.019563663750886917 -0.0027530204970389605
vt 5.235777854919434 2.867641266115985e-15
vt 6.2831854820251465 -1.3089969158172607
vt 5.757541656494141 0.02108752354979515
vt 0.0021980623714625835 -0.003132232464849949
vt 6.2831854820251465 -0.02207229845225811
vt 0.015346665866672993 -0.0042868866585195065
vt 1.5707963705062866 -0.5235987901687622
vt 2.356194496154785 -0.0339989997446537
vt -0.004999805241823196 -0.0030762311071157455
vt 0.6369279623031616 0.009738742373883724
vt 5.385587215423584 -1.9761556592128645e-17
vt 0.016300000250339508 0.019157499074935913
vt 0.4487989544868469 0.0001980622619157657
vt 5.834386348724365 -1.3089969158172607
vt 3.8175086975097656 -0.0009437943808734417
vt 4.936788558959961 -0.5235987901687622
vt 0.9338683485984802 -0.0021750000305473804
vt 4.71238899230957 -1.3089969158172607
vt 5.759586334228516 -0.0339989997446537
vt 1.5707963705062866 -1.3460042476654053
vt 0.4487989544868469 -1.6381100509800343e-14
vt -0.003897114424034953 0.00039999998989515007
vt 0.0006858704728074372 9.029656212078407e-05
vt 4.71238899230957 0.03400000184774399
vt 0.002400000113993883 -0.03799999877810478
vt 4.5300092697143555 -0.0002654980053193867
vt 0.007428518030792475 -0.008756306022405624
vt 0.0022949674166738987 0.003975000232458115
vt 3.3034238815307617 0.019362280145287514
vt 5.49773645401001 -0.028427407145500183
vt 2.094395160675049 -0.025349494069814682
vt 0.5233886241912842 -1.773407131864732e-14
vt 4.71238899230957 -0.026605835184454918
vt 5.522251129150391 0.0029750000685453415
vt 4.155569076538086 -0.0006785175064578652
vt 6.2831854820251465 -0.7853981852531433
vt 2.6179938316345215 -0.0339989997446537
vt 5.497786998748779 0.03400000184774399
vt 6.2831854820251465 -0.0339989997446537
vt 5.759586334228516 -0.03400000184774399
vt -0.05549592152237892 -0.029999656602740288
vt 1.1216031312942505 0.03400000184774399
vt 0.004387499764561653 1.9640079074179084e-07
vt 5.834386348724365 -0.5235987901687622
vt 5.161581993103027 0.03400000184774399
vt 0.2617993950843811 -2.2926931950907766e-17
vt 5.385587215423584 -1.5707963705062866
vt 5.235987663269043 -0.027862178161740303
vt 0.019999999552965164 -0.004000000189989805
vt 5.2314453125 0.02030259743332863
vt 5.609986782073975 -1.0471975803375244
vt -0.003949855919927359 -0.032445043325424194
vt 6.2831854820251465 -1.6381722231983628e-14
vt -0.05631954222917557 -0.032497480511665344
vt -0.004999999888241291 0.0030759144574403763
vt 0.018300000578165054 -0.0006729071610607207
vt 4.71238899230957 -0.019500000402331352
vt 4.039190769195557 0.00595116289332509
vt 2.692793607711792 0.0043875002302229404
vt 0.9598774313926697 0.01415230706334114
vt 5.497786998748779 3.960826011248884e-15
vt 5.609986782073975 -1.5707963705062866
vt 1.832595705986023 -0.0339989997446537
vt 1.4324388075692696e-06 0.03200000151991844
vt 4.71238899230957 0.0020000000949949026
vt 0.002436337061226368 -0.0027530204970389605
vt 0.0183562058955431 -7.237112367067296e-18
vt 0.01924697868525982 -0.002436337061226368
vt 0.003132232464849949 -0.0021980623714625835
vt 0.019600000232458115 -0.019500000402331352
vt 4.720917224884033 0.019513484090566635
vt 0.673198401927948 -1.0471975803375244
vt 5.497786998748779 0.03799999877810478
vt 4.720917224884033 -0.019513484090566635
vt 0.2615375518798828 0.0043875002302229404
vt 0.017999999225139618 0.006387500092387199
vt 0.8975979089736938 0.0007530204020440578
vt 5.834386348724365 0.0001980622619157657
vt 0.0043875002302229404 -1.2681086119876985e-34
vt 5.385587215423584 0.00595116289332509
vt 4.71238899230957 -1.0471975803375244
vt 2.879793167114258 -0.0339989997446537
vt 1.5707963705062866 -0.03400000184774399
vt 1.121997356414795 -0.5235987901687622
vt 3.3819992542266846 0.019261561334133148
vt 0.014571480453014374 -0.008756307885050774
vt 3.2122583389282227 0.002510012360289693
vt 5.834386348724365 -1.5707963705062866
vt 1.5707963705062866 0.0043875002302229404
vt 2.356194496154785 -0.02482910081744194
vt 4.71238899230957 -1.5707963705062866
vt 4.407477855682373 -0.00041970761958509684
vt 4.71238899230957 -0.22479204833507538
vt 0.8975979089736938 -1.6381100509800343e-14
vt 0.673198401927948 0.00043633702443912625
vt -0.0028677675873041153 -0.03380193933844566
vt 4.936788558959961 -1.3089969158172607
vt 5.385587215423584 -0.03799999877810478
vt 3.665191411972046 -0.0339989997446537
vt 6.058785915374756 -1.0471975803375244
vt 1.047407627105713 -1.660300789538792e-14
vt 3.1415927410125732 -0.024093152955174446
vt 1.5707963705062866 -1.1216031312942505
vt -0.0035636629909276962 -0.033246979117393494
vt 1.832595705986023 -0.025955505669116974
vt 0.0036437944509088993 -1.5768680501899438e-18
vt 4.603323936462402 -0.00014820137585047632
vt 2.63234281539917 0.00019999999494757503
vt 3.3659920692443848 -1.9761556592128645e-17
vt 5.235987663269043 -0.0339989997446537
vt 1.3089969158172607 0.017999999225139618
vt 1.3089969158172607 -0.03400000184774399
vt 5.161188125610352 -0.5235987901687622
vt 0.5235987901687622 0.03400000184774399
vt 0.018300000578165054 -0.008756306022405624
vt 1.7831056118011475 0.00019999999494757503
vt 0.7853981852531433 -0.028414146974682808
vt -0.004387499764561653 1.9640079074179084e-07
vt 0.2617993950843811 0.03400000184774399
vt 4.154211044311523 -0.00019999999494757503
vt 5.609986782073975 -1.9761556592128645e-17
vt 0.010999999940395355 -0.0004668499459512532
vt 5.161188125610352 0.001132232486270368
vt 0.05594648793339729 -0.030767207965254784
vt 3.2505593299865723 0.019430365413427353
vt 0.7853981852531433 0.03400000184774399
vt 3.2240395545959473 0.0194716639816761
vt 5.759586334228516 0.03799999877810478
vt 5.161188125610352 0.006189437583088875
vt 5.609986782073975 -0.03799999877810478
vt 0.0 -0.014000000432133675
vt -0.04484907537698746 -0.02207029052078724
vt 4.974188327789307 0.03799999877810478
vt 0.0020000000949949026 -0.03799999877810478
vt 4.71238899230957 -1.1216031312942505
vt 3.348315477371216 0.0026952698826789856
vt 5.161188125610352 -1.5707963705062866
vt 0.017999999225139618 -0.03200000151991844
vt 0.017464101314544678 0.0020000000949949026
vt 1.3092588186264038 -1.56687390248959e-14
vt 3.1415927410125732 -0.03400000184774399
vt 0.2617993950843811 0.017999999225139618
vt 3.15616525190627e-15 -1.5707963705062866
vt 5.501629829406738 0.020685497671365738
vt 2.8800551891326904 0.0043875002302229404
vt 1.7951958179473877 0.0043875002302229404
vt 0.054166972637176514 -0.028830511495471
vt 6.2831854820251465 4.163338989322297e-17
vt 1.0615465641021729 0.007428518030792475
vt 4.936788558959961 3.228648614059899e-15
vt 2.4200336933135986 0.00019999999494757503
vt 1.0471975803375244 0.004000000189989805
vt 1.0471975803375244 0.03400000184774399
vt 0.673198401927948 -1.6381100509800343e-14
vt 0.0022949674166738987 0.0013249999610707164
vt 2.7782716245324836e-14 0.004000000189989805
vt -0.0011646857019513845 0.006996666081249714
vt 5.235987663269043 0.03799999877810478
vt 1.5707963705062866 0.0020000000949949026
vt 0.509249746799469 -0.0029750000685453415
vt 0.00039999998989515007 0.006387500092387199
vt 0.5879590511322021 0.010404114611446857
vt 0.22439947724342346 -1.5707963705062866
vt -1.2878587085651816e-13 -0.02978706732392311
vt -0.010499805212020874 -0.003076579188928008
vt 0.0044999998062849045 0.0026499999221414328
vt -0.0006858704728074372 9.029656212078407e-05
vt 0.7853981852531433 0.0043875002302229404
vt -0.001873833010904491 0.0007761670276522636
vt 1.0471975803375244 0.017999999225139618
vt 1.0471975803375244 -0.03400000184774399
vt 0.13280895352363586 -0.029726680368185043
vt 0.58807373046875 0.011598261073231697
vt 1.3584870100021362 -0.0029750000685453415
vt 1.3089969158172607 -0.0339989997446537
vt 5.235987663269043 -0.03400000184774399
vt 0.006500000134110451 -0.005620836745947599
vt 0.22439947724342346 5.014417547499761e-05
vt 2.618204116821289 0.0043875002302229404
vt 2.7877594099812684e-14 0.017999999225139618
vt 6.2831854820251465 -0.2617993950843811
vt 3.9269907474517822 -0.03400000184774399
vt 3.1415927410125732 0.002400000113993883
vt 0.01844504103064537 -0.0020501441322267056
vt -0.0022499999031424522 -0.0012471142690628767
vt 0.673198401927948 -1.3089969158172607
vt 0.000945068895816803 -0.009063632227480412
vt 4.203139305114746 0.0183562058955431
vt -0.004000000189989805 -0.03200000151991844
vt 0.7853981852531433 -0.03400000184774399
vt -0.05622519925236702 -0.031612467020750046
vt 5.609986782073975 -0.5235987901687622
vt 6.02138614654541 -0.02956325188279152
vt 0.0011646857019513845 0.006996666081249714
vt 0.22439947724342346 -0.5235987901687622
vt 0.007102885749191046 -0.003043843200430274
vt 4.71238899230957 0.03799999877810478
vt 5.522251129150391 0.0022922807838767767
vt 4.375789642333984 0.006275266874581575
vt 5.235987663269043 0.03400000184774399
vt 1.346396803855896 0.0015549581730738282
vt 0.9338683485984802 -0.0029750000685453415
vt 0.22439947724342346 -1.6381100509800343e-14
vt 0.5235987901687622 -0.0339989997446537
vt -0.0013249999610707164 0.0003550326800905168
vt 0.673198401927948 -0.5235987901687622
vt 6.2831854820251465 0.03799999877810478
vt -0.0020000000949949026 -0.03400000184774399
vt 1.5707963705062866 -0.7853981852531433
vt 4.203139305114746 0.0036437944509088993
vt 5.405017852783203 -0.02054871991276741
vt 0.003700000001117587 -0.032499998807907104
vt 2.356194496154785 -6.938893903907228e-18
vt 2.324352851439419e-15 0.0043875002302229404
vt 5.385587215423584 -0.5235987901687622
vt -0.0011646857019513845 -0.0016966662369668484
vt 0.7853981852531433 -0.0339989997446537
vt 1.5707963705062866 0.03400000184774399
vt 0.015346665866672993 -0.006954786367714405
vt 4.71238899230957 -0.5235987901687622
vt 0.01272207498550415 -0.0008591738296672702
vt 4.0687689781188965 -0.000746146310120821
vt 1.346396803855896 -0.2617993950843811
vt 4.896328926086426 0.0029956635553389788
vt 1.121997356414795 -1.0471975803375244
vt 1.0615465641021729 0.003700000001117587
vt 0.017349999397993088 0.006454487331211567
vt 3.415562868118286 0.002781552728265524
vt 0.0174705907702446 0.006404537241905928
vt -0.045377664268016815 -0.02324141561985016
vt 2.4200336933135986 0.0010000000474974513
vt 5.385587215423584 -0.2617993950843811
vt 0.017999999225139618 -0.0020000000949949026
vt 6.060480117797852 -0.0216504018753767
vt 6.058785915374756 0.004832542035728693
vt 1.121997356414795 -1.6381100509800343e-14
vt 1.3460042476654053 0.03400000184774399
vt 0.8492372632026672 0.018300000578165054
vt 1.5707963705062866 -0.8974398970603943
vt 6.170985698699951 1.2575580512930173e-05
vt 3.778381109237671 0.018787607550621033
vt 0.01756366342306137 -0.033246979117393494
vt 4.9748215675354 0.019911332055926323
vt 1.0471975803375244 -2.2926931950907766e-17
vt 5.366379737854004 -0.02813444845378399
vt 4.936788558959961 -0.2617993950843811
vt 1.121997356414795 0.0043875002302229404
vt 0.04710909351706505 -0.02488998882472515
vt 2.63234281539917 0.0010000000474974513
vt 0.673198401927948 -1.5707963705062866
vt 5.609828948974609 0.03400000184774399
vt 5.999100208282471 -0.029526356607675552
vt 0.05489373579621315 -0.029344279319047928
vt 0.0 -1.6381722231983628e-14
vt 2.879793167114258 -0.024178769439458847
vt 4.132562160491943 0.0035779804456979036
vt 1.5707963705062866 0.017999999225139618
vt 5.834386348724365 -1.9761556592128645e-17
vt 0.003700000001117587 -0.0006729071610607207
vt 5.385587215423584 -1.3089969158172607
vt 4.936788558959961 -0.03799999877810478
vt 0.5735130906105042 0.010999999940395355
vt 3.2724924087524414 -0.02411464788019657
vt 0.22439947724342346 0.0043875002302229404
vt 2.356194496154785 -0.03400000184774399
vt 5.834386348724365 -0.2617993950843811
vt 4.71238899230957 -0.6733564734458923
vt 0.01549999974668026 -0.005620836745947599
vt 4.9372239112854 -0.019852574914693832
vt 0.8975979089736938 -1.5707963705062866
vt 0.01041263248771429 -0.0005109430057927966
vt 1.5707963705062866 0.00019999999494757503
vt 5.551115123125783e-17 0.0052999998442828655
vt 4.936788558959961 -0.7853981852531433
vt 1.346396803855896 -0.5235987901687622
vt 0.045377664268016815 -0.02324141561985016
vt 3.6853792667388916 0.018892815336585045
vt 4.188790321350098 -0.0339989997446537
vt 3.353928565979004 0.019297538325190544
vt 3.445807456970215 0.019179431721568108
vt 0.001873833010904491 0.0007761670276522636
vt 5.161188125610352 -0.2617993950843811
vt 0.2123093158006668 0.018300000578165054
vt 0.11219973862171173 1.2575580512930173e-05
vt 3.566215753555298 0.019035382196307182
vt 4.71238899230957 -0.44919317960739136
vt 6.2831854820251465 0.0043875002302229404
f 308/690 307/691 300/692
f 217/693 201/694 205/695
f 300/692 307/691 309/696
f 201/694 203/697 205/695
f 203/697 295/698 205/695
f 205/695 295/698 251/699
f 303/700 304/701 297/702
f 304/701 295/698 297/702
f 297/702 295/698 307/691
f 295/698 203/697 307/691
f 307/691 203/697 309/696
f 212/703 205/695 210/704
f 205/695 208/705 210/704
f 212/703 214/706 205/695
f 214/706 218/707 205/695
f 205/695 218/707 217/693
f 301/708 302/709 300/692
f 302/709 306/710 300/692
f 300/692 306/710 308/690
f 298/711 299/712 297/702
f 299/712 305/713 297/702
f 297/702 305/713 303/700
f 248/714 235/715 251/699
f 235/715 221/716 251/699
f 251/699 221/716 205/695
f 248/714 245/717 235/715
f 245/717 241/718 235/715
f 235/715 241/718 238/719
