mtllib materials.mtl
o Defeatured_2F_85_PAD_OPEN_fingertipsstep_Cod_Gray

usemtl Cod_Gray
v -0.060057446360588074 0.11442073434591293 -2.02223932315327e-14
v -0.059967149049043655 0.11442072689533234 0.0006858704728074372
v -0.05970241501927376 0.11442071944475174 0.0013249999610707164
v -0.059281278401613235 0.11442069709300995 0.001873833010904491
v -0.058732446283102036 0.11442067474126816 0.0022949674166738987
v -0.05809331685304642 0.11442064493894577 0.002559703541919589
v -0.057407446205616 0.11442061513662338 0.0026499999221414328
v -0.05672157555818558 0.114420585334301 0.002559703541919589
v -0.05608244612812996 0.11442055553197861 0.0022949674166738987
v -0.05553361400961876 0.11442053318023682 0.001873833010904491
v -0.055112481117248535 0.11442051082849503 0.0013249999610707164
v -0.05484774336218834 0.11442050337791443 0.0006858704728074372
v -0.05475744605064392 0.11442049592733383 -2.0223441858321402e-14
v -0.05484774336218834 0.11442050337791443 -0.0006858704728074372
v -0.055112481117248535 0.11442051082849503 -0.0013249999610707164
v -0.05553361400961876 0.11442053318023682 -0.001873833010904491
v -0.05608244612812996 0.11442055553197861 -0.0022949674166738987
v -0.05672157555818558 0.114420585334301 -0.002559703541919589
v -0.057407446205616 0.11442061513662338 -0.0026499999221414328
v -0.05809331685304642 0.11442064493894577 -0.002559703541919589
v -0.058732446283102036 0.11442067474126816 -0.0022949674166738987
v -0.059281278401613235 0.11442069709300995 -0.001873833010904491
v -0.05970241501927376 0.11442071944475174 -0.0013249999610707164
v -0.059967149049043655 0.11442072689533234 -0.0006858704728074372
v -0.059967149049043655 0.11442173272371292 0.0006858704728074372
v -0.060057446360588074 0.11442173272371292 -2.0216387767936668e-14
v -0.05970241501927376 0.11442171782255173 0.0013249999610707164
v -0.059281278401613235 0.11442169547080994 0.001873833010904491
v -0.058732446283102036 0.11442167311906815 0.0022949674166738987
v -0.05809331685304642 0.11442164331674576 0.002559703541919589
v -0.057407446205616 0.11442161351442337 0.0026499999221414328
v -0.05672157555818558 0.11442158371210098 0.002559703541919589
v -0.05608244612812996 0.1144215539097786 0.0022949674166738987
v -0.05553361400961876 0.1144215315580368 0.001873833010904491
v -0.055112481117248535 0.11442150920629501 0.0013249999610707164
v -0.05484774336218834 0.11442150175571442 0.0006858704728074372
v -0.05475744605064392 0.11442149430513382 -2.0223441858321402e-14
v -0.05484774336218834 0.11442150175571442 -0.0006858704728074372
v -0.055112481117248535 0.11442150920629501 -0.0013249999610707164
v -0.05553361400961876 0.1144215315580368 -0.001873833010904491
v -0.05608244612812996 0.1144215539097786 -0.0022949674166738987
v -0.05672157555818558 0.11442158371210098 -0.002559703541919589
v -0.057407446205616 0.11442161351442337 -0.0026499999221414328
v -0.05809331685304642 0.11442164331674576 -0.002559703541919589
v -0.058732446283102036 0.11442167311906815 -0.0022949674166738987
v -0.059281278401613235 0.11442169547080994 -0.001873833010904491
v -0.05970241501927376 0.11442171782255173 -0.0013249999610707164
v -0.059967149049043655 0.11442173272371292 -0.0006858704728074372
v -0.058572132140398026 0.11442066729068756 0.004346666391938925
v -0.057407446205616 0.11442061513662338 0.0044999998062849045
v -0.05624276027083397 0.1144205629825592 0.004346666391938925
v -0.06058942899107933 0.11442075669765472 0.0031819804571568966
v -0.059657447040081024 0.11442071944475174 0.003897114424034953
v -0.05515744537115097 0.11442051082849503 0.003897114424034953
v -0.053510334342718124 0.11442044377326965 0.0022499999031424522
v -0.053060781210660934 0.11442042142152786 0.0011646857019513845
v -0.05290744826197624 0.11442041397094727 -2.022537986970472e-14
v -0.053060781210660934 0.11442042142152786 -0.0011646857019513845
v -0.057407446205616 0.11442061513662338 -0.0044999998062849045
v -0.058572132140398026 0.11442066729068756 -0.004346666391938925
v -0.06175411492586136 0.1144208088517189 0.0011646857019513845
v -0.06130456179380417 0.11442078649997711 0.0022499999031424522
v -0.05422546714544296 0.11442047357559204 0.0031819804571568966
v -0.053510334342718124 0.11442044377326965 -0.0022499999031424522
v -0.05422546714544296 0.11442047357559204 -0.0031819804571568966
v -0.05515744537115097 0.11442051082849503 -0.003897114424034953
v -0.05624276027083397 0.1144205629825592 -0.004346666391938925
v -0.059657447040081024 0.11442071944475174 -0.003897114424034953
v -0.06130456179380417 0.11442078649997711 -0.0022499999031424522
v -0.06175411492586136 0.1144208088517189 -0.0011646857019513845
v -0.06058942899107933 0.11442075669765472 -0.0031819804571568966
v -0.06190744787454605 0.1144208163022995 -2.021340112976465e-14
v -0.06100999191403389 0.11967466026544571 -0.002696289448067546
v -0.06055918335914612 0.11999335139989853 -0.003152306890115142
v -0.061726879328489304 0.11889445036649704 -0.0012612579157575965
v -0.06130433827638626 0.11939365416765213 -0.0022499999031424522
v -0.06186731159687042 0.11869461089372635 -0.0005982614238746464
v -0.06175391376018524 0.11885755509138107 -0.0011646857019513845
v -0.06190725788474083 0.11863374710083008 -2.0794096425216096e-14
v -0.06186762824654579 0.11869413405656815 0.0005958849797025323
v -0.06174759194254875 0.11886496841907501 0.0011633391259238124
v -0.061726879328489304 0.11889445036649704 0.0012612579157575965
v -0.060995761305093765 0.11965812742710114 0.002652129391208291
v -0.06130433827638626 0.11939365416765213 0.0022499999031424522
v -0.06014479696750641 0.12028629332780838 0.0035714819096028805
v -0.060589179396629333 0.12000661343336105 0.0031819804571568966
v -0.05965717136859894 0.12055853754281998 0.003897114424034953
v -0.05857183039188385 0.12116450071334839 0.004346666391938925
v -0.057407114654779434 0.1218147799372673 0.0044999998062849045
v -0.05624240264296532 0.12246505916118622 0.004346666391938925
v -0.05515706166625023 0.12307102233171463 0.003897114424034953
v -0.05422505736351013 0.12359137088060379 0.0031819804571568966
v -0.05383693799376488 0.12380806356668472 0.0027394264470785856
v -0.053249552845954895 0.12413600832223892 0.0017220753943547606
v -0.0535099059343338 0.12399065494537354 0.0022499999031424522
v -0.05294550210237503 0.12430576980113983 0.000587367860134691
v -0.053060341626405716 0.1242416501045227 0.0011646857019513845
v -0.05294550210237503 0.12430576980113983 -0.000587367860134691
v -0.052907004952430725 0.12432726472616196 -2.022351639722076e-14
v -0.053249552845954895 0.12413600832223892 -0.0017220753943547606
v -0.053060341626405716 0.1242416501045227 -0.0011646857019513845
v -0.05383693799376488 0.12380806356668472 -0.0027394264470785856
v -0.0535099059343338 0.12399065494537354 -0.0022499999031424522
v -0.05422505736351013 0.12359137088060379 -0.0031819804571568966
v -0.05515706166625023 0.12307102233171463 -0.003897114424034953
v -0.05624240264296532 0.12246505916118622 -0.004346666391938925
v -0.057407114654779434 0.1218147799372673 -0.0044999998062849045
v -0.05857183039188385 0.12116450071334839 -0.004346666391938925
v -0.05965717136859894 0.12055853754281998 -0.003897114424034953
v -0.06014479696750641 0.12028628587722778 -0.003571480745449662
v -0.06270737946033478 0.11592084914445877 -0.007300000172108412
v -0.06270737946033478 0.11592084914445877 0.007300000172108412
v -0.06259506940841675 0.11697443574666977 0.007300000172108412
v -0.06259506940841675 0.11697443574666977 -0.007300000172108412
v -0.06226326897740364 0.11798069626092911 0.007300000172108412
v -0.06100999191403389 0.11967466026544571 0.007300000172108412
v -0.06014479696750641 0.12028629332780838 0.007300000172108412
v -0.061726879328489304 0.11889445036649704 0.007300000172108412
v -0.061726879328489304 0.11889445036649704 -0.007300000172108412
v -0.06226326897740364 0.11798069626092911 -0.007300000172108412
v -0.06100999191403389 0.11967466026544571 -0.007300000172108412
v -0.06014479696750641 0.12028629332780838 -0.007300000172108412
v -0.06270762532949448 0.11042085289955139 -0.007300000172108412
v -0.06270762532949448 0.11042085289955139 0.007300000172108412
v -0.06190738081932068 0.11592081934213638 -0.008100000210106373
v -0.06190762668848038 0.11042081564664841 -0.008100000210106373
v -0.059754811227321625 0.11958778649568558 -0.008100000210106373
v -0.06048157438635826 0.1190740168094635 -0.008100000210106373
v -0.06108376011252403 0.11841864138841629 -0.008100000210106373
v -0.061534326523542404 0.1176510900259018 -0.008100000210106373
v -0.06181303784251213 0.11680582910776138 -0.008100000210106373
v -0.05269693210721016 0.12352830916643143 -0.008100000210106373
v -0.05308691784739494 0.12422680854797363 -0.007300000172108412
v -0.050437625497579575 0.11042030155658722 -0.008100000210106373
v -0.050965502858161926 0.12517687678337097 -0.008100000210106373
v -0.050460610538721085 0.12627089023590088 -0.008100000210106373
v -0.05172693729400635 0.12424307316541672 -0.008100000210106373
v -0.05043691396713257 0.12634800374507904 -0.008100000210106373
v -0.05041356384754181 0.12687517702579498 -0.008035383187234402
v -0.050166454166173935 0.12742257118225098 -0.008179432712495327
v -0.0501890555024147 0.12733276188373566 -0.008172794245183468
v -0.05065813660621643 0.12633341550827026 -0.007892816327512264
v -0.050313010811805725 0.12684029340744019 -0.008136389777064323
v -0.0509425513446331 0.12596622109413147 -0.007787606678903103
v -0.051362115889787674 0.1254245638847351 -0.007632403168827295
v -0.051651060581207275 0.1251869797706604 -0.007558014709502459
v -0.052197717130184174 0.12473750859498978 -0.007417280692607164
v -0.05249938368797302 0.124554842710495 -0.007356205489486456
v -0.05010100454092026 0.12773479521274567 -0.008261560462415218
v -0.050072330981492996 0.127871572971344 -0.008297538384795189
v -0.050004612654447556 0.11042028665542603 -0.008349999785423279
v -0.05008407309651375 0.11042028665542603 -0.008246446959674358
v -0.04995466396212578 0.11042027920484543 -0.008470590226352215
v -0.0500207357108593 0.12811768054962158 -0.008362280204892159
v -0.0499664768576622 0.1283765286207199 -0.008430366404354572
v -0.04993762448430061 0.11042027920484543 -0.00860000029206276
v -0.04995907098054886 0.12850895524024963 -0.008471664041280746
v -0.04993681609630585 0.12890680134296417 -0.008595735765993595
v -0.050308216363191605 0.11042029410600662 -0.008117036893963814
v -0.050187624990940094 0.11042029410600662 -0.00816698744893074
v -0.049936797469854355 0.1289202868938446 -0.00860000029206276
v -0.06190738081932068 0.11592081934213638 0.008100000210106373
v -0.06190762668848038 0.11042081564664841 0.008100000210106373
v -0.06181303784251213 0.11680582910776138 0.008100000210106373
v -0.061534326523542404 0.1176510900259018 0.008100000210106373
v -0.06108376011252403 0.11841864138841629 0.008100000210106373
v -0.06048157438635826 0.1190740168094635 0.008100000210106373
v -0.059754811227321625 0.11958778649568558 0.008100000210106373
v -0.05249938368797302 0.124554842710495 0.007356205489486456
v -0.05308691784739494 0.12422680854797363 0.007300000172108412
v -0.05269693210721016 0.12352830916643143 0.008100000210106373
v -0.050437625497579575 0.11042030155658722 0.008100000210106373
v -0.05043691396713257 0.12634800374507904 0.008100000210106373
v -0.050460610538721085 0.12627089023590088 0.008100000210106373
v -0.05172693729400635 0.12424307316541672 0.008100000210106373
v -0.050965502858161926 0.12517687678337097 0.008100000210106373
v -0.0499664768576622 0.1283765286207199 0.008430366404354572
v -0.049955785274505615 0.12856771051883698 0.008489987812936306
v -0.04993681609630585 0.12890680134296417 0.008595735765993595
v -0.05006660148501396 0.1278989017009735 0.00830473005771637
v -0.050072330981492996 0.127871572971344 0.008297538384795189
v -0.04999784007668495 0.12822692096233368 0.008391013368964195
v -0.049936797469854355 0.1289202868938446 0.00860000029206276
v -0.050166454166173935 0.12742257118225098 0.008179432712495327
v -0.05013535916805267 0.12757089734077454 0.008218447677791119
v -0.05038091167807579 0.12686043977737427 0.008034502156078815
v -0.05068149417638779 0.12634839117527008 0.007894549518823624
v -0.05091729760169983 0.12594668567180634 0.0077847568318247795
v -0.05138028785586357 0.12544280290603638 0.0076356325298547745
v -0.05163418501615524 0.12516647577285767 0.007553853560239077
v -0.05221128463745117 0.12475850433111191 0.007422019727528095
v -0.05033072456717491 0.12676990032196045 0.008131186477839947
v -0.05022444576025009 0.1271921694278717 0.008162400685250759
v -0.04993762448430061 0.11042027920484543 0.00860000029206276
v -0.049950163811445236 0.11042027920484543 0.008488739840686321
v -0.04998714104294777 0.11042028665542603 0.00838305801153183
v -0.050125882029533386 0.11042028665542603 0.008209084160625935
v -0.050046712160110474 0.11042028665542603 0.008288254961371422
v -0.050220683217048645 0.11042029410600662 0.008149515837430954
v -0.05032636597752571 0.11042030155658722 0.008112535811960697
v -0.04355012625455856 0.11041999608278275 0.008999999612569809
v -0.04993762448430061 0.11042027920484543 0.008999999612569809
v -0.04355012625455856 0.11041999608278275 -0.008999999612569809
v -0.04993762448430061 0.11042027920484543 -0.008999999612569809
v -0.0435500368475914 0.112419992685318 0.010999999940395355
v -0.0479375384747982 0.11242019385099411 0.010999999940395355
v -0.04838259890675545 0.11197517067193985 0.010949855670332909
v -0.04355005547404289 0.11197495460510254 0.010949855670332909
v -0.048805344849824905 0.11155246198177338 0.01080193743109703
v -0.043550074100494385 0.11155223101377487 0.01080193743109703
v -0.04918457195162773 0.11117326468229294 0.010563663206994534
v -0.04355009272694588 0.11117301881313324 0.010563663206994534
v -0.049501270055770874 0.11085660010576248 0.010246980004012585
v -0.04355010762810707 0.11085633188486099 0.010246980004012585
v -0.04973955452442169 0.11061833053827286 0.009867767803370953
v -0.04982538893818855 0.11053250730037689 0.009660557843744755
v -0.043550122529268265 0.11047013849020004 0.009445041418075562
v -0.043550118803977966 0.11061805486679077 0.009867767803370953
v -0.049925051629543304 0.11043285578489304 0.009223928675055504
v -0.04988747835159302 0.11047042161226273 0.009445041418075562
v -0.04354860261082649 0.14441999793052673 0.010999999940395355
v -0.047936104238033295 0.14442019164562225 0.010999999940395355
v -0.04987765848636627 0.14442028105258942 0.009443948976695538
v -0.04993610456585884 0.14442028105258942 0.008999999612569809
v -0.04972514137625694 0.14442026615142822 0.009862423874437809
v -0.04986795410513878 0.14442028105258942 0.009517638012766838
v -0.04966815561056137 0.14442026615142822 0.009999999776482582
v -0.049486469477415085 0.14442026615142822 0.010236776433885098
v -0.04917288199067116 0.14442025125026703 0.010550365783274174
v -0.0493503175675869 0.14442025125026703 0.010414213873445988
v -0.04879852756857872 0.14442023634910583 0.010789036750793457
v -0.04893610253930092 0.14442023634910583 0.010732050985097885
v -0.0483800545334816 0.14442020654678345 0.010941552929580212
v -0.048453740775585175 0.14442022144794464 0.010931851342320442
v -0.04354855790734291 0.1454552710056305 0.010863703675568104
v -0.04793606325984001 0.14531026780605316 0.010899711400270462
v -0.04793605953454971 0.14545086026191711 0.010850520804524422
v -0.04354851320385933 0.14642000198364258 0.010464102029800415
v -0.04793602600693703 0.1461557298898697 0.01060387585312128
v -0.04793601483106613 0.1464083045721054 0.01044517382979393
v -0.043548475950956345 0.14724841713905334 0.009828426875174046
v -0.04793599247932434 0.14691415429115295 0.010127325542271137
v -0.04793597757816315 0.1472308337688446 0.009810642339289188
v -0.04793596267700195 0.14754751324653625 0.00949395913630724
v -0.043548449873924255 0.14788410067558289 0.008999999612569809
v -0.04793595150113106 0.14786536991596222 0.00898810662329197
v -0.04793594405055046 0.1480240672826767 0.008735534735023975
v -0.04354843124747276 0.1482837051153183 0.008035276085138321
v -0.047935932874679565 0.14827071130275726 0.00803066324442625
v -0.04793592914938927 0.14831990003585815 0.007890083827078342
v -0.043548423796892166 0.14841999113559723 0.007000000216066837
v -0.04793592542409897 0.14842018485069275 0.007000000216066837
v -0.049867842346429825 0.14693792164325714 0.007000000216066837
v -0.04993601515889168 0.14642028510570526 0.007000000216066837
v -0.04993601515889168 0.14637014269828796 0.00744504202157259
v -0.049936022609472275 0.14622221887111664 0.007867767475545406
v -0.04993603378534317 0.14598394930362701 0.008246979676187038
v -0.049936048686504364 0.14566725492477417 0.008563662879168987
v -0.04993606358766556 0.14528805017471313 0.008801938034594059
v -0.04993608593940735 0.14486531913280487 0.008949856273829937
v -0.049668021500110626 0.147420272231102 0.007000000216066837
v -0.04935016483068466 0.14783446490764618 0.007000000216066837
v -0.048935938626527786 0.14815229177474976 0.007000000216066837
v -0.04845356568694115 0.14835207164287567 0.007000000216066837
v -0.04845370352268219 0.1452951282262802 0.010833271779119968
v -0.048453666269779205 0.1461261808872223 0.010542475618422031
v -0.04845363274216652 0.1468716859817505 0.01007404550909996
v -0.04845360293984413 0.14749425649642944 0.009451469406485558
v -0.04845358431339264 0.14796268939971924 0.008705966174602509
v -0.048453569412231445 0.14825348556041718 0.007874919101595879
v -0.048936065286397934 0.14525069296360016 0.010638480074703693
v -0.04893603175878525 0.14603951573371887 0.01036246120929718
v -0.04893600195646286 0.14674712717533112 0.009917834773659706
v -0.04893597215414047 0.14733807742595673 0.009326895698904991
v -0.04893595352768898 0.14778269827365875 0.008619275875389576
v -0.048935942351818085 0.1480587124824524 0.007830459624528885
v -0.04935028403997421 0.14517998695373535 0.01032861229032278
v -0.049350250512361526 0.145901620388031 0.010076100006699562
v -0.04935022071003914 0.14654898643493652 0.009669339284300804
v -0.04935019835829735 0.14708960056304932 0.00912872701883316
v -0.049350179731845856 0.14749635756015778 0.008481372147798538
v -0.04935016855597496 0.14774887263774872 0.007759734056890011
v -0.04966812580823898 0.1450878381729126 0.009924783371388912
v -0.049668096005916595 0.1457219272851944 0.00970290694385767
v -0.049668069928884506 0.14629073441028595 0.009345494210720062
v -0.049668051302433014 0.14676576852798462 0.008870469406247139
v -0.04966803267598152 0.14712317287921906 0.00830165110528469
v -0.049668025225400925 0.14734505116939545 0.007667562924325466
v -0.04986793175339699 0.1449805051088333 0.009454515762627125
v -0.0498679056763649 0.1455126404762268 0.009268313646316528
v -0.049867887049913406 0.14598999917507172 0.008968369103968143
v -0.049867868423461914 0.14638864994049072 0.008569722063839436
v -0.04986785352230072 0.14668859541416168 0.008092362433671951
v -0.04986784607172012 0.14687480032444 0.007560227066278458
v -0.043548423796892166 0.14841999113559723 -0.007000000216066837
v -0.04793592542409897 0.14842018485069275 -0.007000000216066837
v -0.04354860261082649 0.14441999793052673 -0.010999999940395355
v -0.04354855790734291 0.1454552710056305 -0.010863703675568104
v -0.04354851320385933 0.14642000198364258 -0.010464102029800415
v -0.043550118803977966 0.11061805486679077 -0.009867767803370953
v -0.04355010762810707 0.11085633188486099 -0.010246980004012585
v -0.04355009272694588 0.11117301881313324 -0.010563663206994534
v -0.043548449873924255 0.14788410067558289 -0.008999999612569809
v -0.04354843124747276 0.1482837051153183 -0.008035276085138321
v -0.043548475950956345 0.14724841713905334 -0.009828426875174046
v -0.043550074100494385 0.11155223101377487 -0.01080193743109703
v -0.0435500368475914 0.112419992685318 -0.010999999940395355
v -0.04355005547404289 0.11197495460510254 -0.010949855670332909
v -0.043550122529268265 0.11047013849020004 -0.009445041418075562
v -0.049925051629543304 0.11043285578489304 -0.009223928675055504
v -0.04982538893818855 0.11053250730037689 -0.009660557843744755
v -0.04988747835159302 0.11047042161226273 -0.009445041418075562
v -0.04973955452442169 0.11061833053827286 -0.009867767803370953
v -0.049501270055770874 0.11085660010576248 -0.010246980004012585
v -0.04918457195162773 0.11117326468229294 -0.010563663206994534
v -0.048805344849824905 0.11155246198177338 -0.01080193743109703
v -0.04838259890675545 0.11197517067193985 -0.010949855670332909
v -0.0479375384747982 0.11242019385099411 -0.010999999940395355
v -0.047936104238033295 0.14442019164562225 -0.010999999940395355
v -0.04993610456585884 0.14442028105258942 -0.008999999612569809
v -0.049936048686504364 0.14566725492477417 -0.008563662879168987
v -0.04993606358766556 0.14528805017471313 -0.008801938034594059
v -0.049936022609472275 0.14622221887111664 -0.007867767475545406
v -0.04993603378534317 0.14598394930362701 -0.008246979676187038
v -0.04993601515889168 0.14637014269828796 -0.00744504202157259
v -0.04993601515889168 0.14642028510570526 -0.007000000216066837
v -0.04993608593940735 0.14486531913280487 -0.008949856273829937
v -0.04793592914938927 0.14831990003585815 -0.007890083827078342
v -0.047935932874679565 0.14827071130275726 -0.00803066324442625
v -0.04793594405055046 0.1480240672826767 -0.008735534735023975
v -0.04793595150113106 0.14786536991596222 -0.00898810662329197
v -0.04793596267700195 0.14754751324653625 -0.00949395913630724
v -0.04793597757816315 0.1472308337688446 -0.009810642339289188
v -0.04793599247932434 0.14691415429115295 -0.010127325542271137
v -0.04793601483106613 0.1464083045721054 -0.01044517382979393
v -0.04793602600693703 0.1461557298898697 -0.01060387585312128
v -0.04793605953454971 0.14545086026191711 -0.010850520804524422
v -0.04793606325984001 0.14531026780605316 -0.010899711400270462
v -0.04879852756857872 0.14442023634910583 -0.010789036750793457
v -0.048453740775585175 0.14442022144794464 -0.010931851342320442
v -0.04917288199067116 0.14442025125026703 -0.010550365783274174
v -0.04893610253930092 0.14442023634910583 -0.010732050985097885
v -0.0493503175675869 0.14442025125026703 -0.010414213873445988
v -0.049486469477415085 0.14442026615142822 -0.010236776433885098
v -0.04972514137625694 0.14442026615142822 -0.009862423874437809
v -0.04966815561056137 0.14442026615142822 -0.009999999776482582
v -0.04987765848636627 0.14442028105258942 -0.009443948976695538
v -0.04986795410513878 0.14442028105258942 -0.009517638012766838
v -0.0483800545334816 0.14442020654678345 -0.010941552929580212
v -0.049867842346429825 0.14693792164325714 -0.007000000216066837
v -0.049668021500110626 0.147420272231102 -0.007000000216066837
v -0.04935016483068466 0.14783446490764618 -0.007000000216066837
v -0.048935938626527786 0.14815229177474976 -0.007000000216066837
v -0.04845356568694115 0.14835207164287567 -0.007000000216066837
v -0.04986784607172012 0.14687480032444 -0.007560227066278458
v -0.049668025225400925 0.14734505116939545 -0.007667562924325466
v -0.048935942351818085 0.1480587124824524 -0.007830459624528885
v -0.048453569412231445 0.14825348556041718 -0.007874919101595879
v -0.04845358431339264 0.14796268939971924 -0.008705966174602509
v -0.04845360293984413 0.14749425649642944 -0.009451469406485558
v -0.04845363274216652 0.1468716859817505 -0.01007404550909996
v -0.048453666269779205 0.1461261808872223 -0.010542475618422031
v -0.04845370352268219 0.1452951282262802 -0.010833271779119968
v -0.048936065286397934 0.14525069296360016 -0.010638480074703693
v -0.04893603175878525 0.14603951573371887 -0.01036246120929718
v -0.04893600195646286 0.14674712717533112 -0.009917834773659706
v -0.04893597215414047 0.14733807742595673 -0.009326895698904991
v -0.04893595352768898 0.14778269827365875 -0.008619275875389576
v -0.04935016855597496 0.14774887263774872 -0.007759734056890011
v -0.049350179731845856 0.14749635756015778 -0.008481372147798538
v -0.04935019835829735 0.14708960056304932 -0.00912872701883316
v -0.04935022071003914 0.14654898643493652 -0.009669339284300804
v -0.049350250512361526 0.145901620388031 -0.010076100006699562
v -0.04935028403997421 0.14517998695373535 -0.01032861229032278
v -0.04966812580823898 0.1450878381729126 -0.009924783371388912
v -0.049668096005916595 0.1457219272851944 -0.00970290694385767
v -0.049668069928884506 0.14629073441028595 -0.009345494210720062
v -0.049668051302433014 0.14676576852798462 -0.008870469406247139
v -0.04966803267598152 0.14712317287921906 -0.00830165110528469
v -0.04986785352230072 0.14668859541416168 -0.008092362433671951
v -0.049867868423461914 0.14638864994049072 -0.008569722063839436
v -0.049867887049913406 0.14598999917507172 -0.008968369103968143
v -0.0498679056763649 0.1455126404762268 -0.009268313646316528
v -0.04986793175339699 0.1449805051088333 -0.009454515762627125
vt 3.814790964126587 -1.9761556592128645e-17
vt 4.936788558959961 0.0015549581730738282
vt 0.00927792489528656 -0.0008591738296672702
vt 0.0043875002302229404 -0.014000000432133675
vt 5.759796619415283 2.840637432241044e-15
vt 0.008260573260486126 -0.0015319040976464748
vt 4.450589656829834 -0.025955505669116974
vt 0.008750000037252903 -0.0011573531664907932
vt 4.450589656829834 -0.03400000184774399
vt -0.0043860673904418945 0.03200019523501396
vt 1.5707963705062866 -0.6733564734458923
vt 5.759586334228516 -0.029027137905359268
vt 0.4487989544868469 -1.3089969158172607
vt -0.05489373579621315 -0.029344279319047928
vt 3.665191411972046 -0.03400000184774399
vt 0.013249999843537807 -0.0011573531664907932
vt 3.903663158416748 -0.0008926292648538947
vt 0.0028610273730009794 -0.0011295010335743427
vt 1.832595705986023 -6.938893903907228e-18
vt 3.915743350982666 0.0033643676433712244
vt 4.974188327789307 -0.0339989997446537
vt 4.974188327789307 -0.02725616656243801
vt -0.0038019376806914806 -0.03286776691675186
vt 4.263589859008789 -1.9761556592128645e-17
vt -0.0022499999031424522 0.006547114346176386
vt 0.0011646857019513845 -0.0016966662369668484
vt 0.044872771948575974 -0.02214740216732025
vt 1.5707963705062866 -0.0339989997446537
vt 0.7853981852531433 -1.7952407613329273e-14
vt 3.469446951953614e-15 4.163338989322297e-17
vt 4.936788558959961 -1.5707963705062866
vt 0.7215590476989746 -0.0021750000305473804
vt 0.004388932604342699 -0.03199980407953262
vt 4.513359546661377 -0.00018393468053545803
vt 0.017100000753998756 0.006887500174343586
vt 3.6508424282073975 -0.00019999999494757503
vt 0.0006858704728074372 0.005209703464061022
vt 0.0 -0.0339989997446537
vt 0.4487989544868469 -0.2617993950843811
vt 0.4487989544868469 -0.5235987901687622
vt -0.001873833010904491 0.004523832816630602
vt 4.651575565338135 -0.00012056763807777315
vt 0.9168061017990112 -0.02813444659113884
vt 0.7215590476989746 -0.0029750000685453415
vt 5.161188125610352 3.228648614059899e-15
vt 0.0008999999845400453 0.018357500433921814
vt 5.048988342285156 0.006275266874581575
vt 1.5707963705062866 -2.2925687871266486e-17
vt -0.003464101580902934 0.0020000000949949026
vt -0.0044999998062849045 0.0026499999221414328
vt 0.22439947724342346 -1.0471975803375244
vt 6.058785915374756 -1.9761556592128645e-17
vt 4.71238899230957 -0.0339989997446537
vt 4.188790321350098 -0.03400000184774399
vt 3.9906539916992188 0.018558014184236526
vt 5.161188125610352 -1.3089969158172607
vt 0.0 0.0
vt 0.2617993950843811 0.004000000189989805
vt 4.48798942565918 0.006337355822324753
vt 4.600189208984375 0.006374924443662167
vt 5.058526992797852 -0.020043756812810898
vt 2.9171931743621826 0.0043875002302229404
vt 5.0188822746276855 0.0027678159531205893
vt 6.022075176239014 0.021580010652542114
vt 0.002400000113993883 -0.019500000402331352
vt 3.7785205841064453 0.0032152433414012194
vt 0.006653334014117718 -0.006954786367714405
vt 4.422701835632324 -0.00019999999494757503
vt -0.008083399385213852 0.0030759144574403763
vt 4.892944812774658 0.002892552874982357
vt 0.05549592152237892 -0.029999656602740288
vt 4.71238899230957 -1.9762178631949285e-17
vt -0.001035276218317449 0.003863703226670623
vt 0.017100000753998756 0.018357500433921814
vt 5.497786998748779 -0.0339989997446537
vt 5.834386348724365 -1.0471975803375244
vt -0.003863703226670623 0.001035276218317449
vt 4.936788558959961 -1.9761556592128645e-17
vt 0.05622519925236702 -0.031612467020750046
vt 5.834386348724365 -0.03799999877810478
vt 0.4246186316013336 0.003700000001117587
vt 0.8491899967193604 0.008347870782017708
vt 0.056319788098335266 -0.03799748048186302
vt 5.116908550262451 0.002645724918693304
vt 1.7831056118011475 0.0010000000474974513
vt 2.6179938316345215 -0.03400000184774399
vt 1.121997356414795 0.001132232486270368
vt 6.2831854820251465 0.02207229845225811
vt 4.71238899230957 3.228648614059899e-15
vt 0.003700000001117587 -0.03799999877810478
vt 0.22439947724342346 -1.3089969158172607
vt 3.814790964126587 0.0056344796903431416
vt 9.345808168446267e-17 -0.5235987901687622
vt -0.0031819804571568966 -0.0005319805350154638
vt 5.161188125610352 -1.0471975803375244
vt 0.014897114597260952 -0.003043843200430274
vt 2.4870941638946533 -0.024612389504909515
vt 0.4487989544868469 -1.5707963705062866
vt 0.018300000578165054 -0.032499998807907104
vt 4.71238899230957 -0.8974398970603943
vt 4.263589859008789 0.006189437583088875
vt 0.7853981852531433 0.004000000189989805
vt -0.05594648793339729 -0.030767207965254784
vt 2.0941848754882812 0.0043875002302229404
vt 1.5707963705062866 -1.0471975803375244
vt 0.017246980220079422 -0.03356366232037544
vt 6.058785915374756 3.228648614059899e-15
vt 0.6277803182601929 0.012164685875177383
vt 4.973926544189453 4.446756531110941e-15
vt 0.5235987901687622 0.004000000189989805
vt 5.405017852783203 0.02054871991276741
vt 5.614457130432129 -0.020849399268627167
vt 0.5235987901687622 -0.029027137905359268
vt 0.8492372632026672 0.003700000001117587
vt 6.158268339717665e-17 0.00420728512108326
vt 1.5707963705062866 -1.5707963705062866
vt 5.833992004394531 0.03400000184774399
vt 4.188790321350098 -0.025349494069814682
vt 0.003897114424034953 0.004900000058114529
vt 1.346396803855896 -1.5707963705062866
vt 1.0615462064743042 0.014571480453014374
vt 0.22439947724342346 -0.7853981852531433
vt 4.974188327789307 0.03400000184774399
vt 2.4683942794799805 0.0043875002302229404
vt 3.4033920764923096 -0.0339989997446537
vt 6.058785915374756 5.014417547499761e-05
vt 0.017117036506533623 0.006758090574294329
vt 0.004346666391938925 0.0038146856240928173
vt 5.834386348724365 0.0052552674897015095
vt 6.2831854820251465 0.03400000184774399
vt 0.7678253054618835 0.008750000037252903
vt 5.354524612426758 0.0024180333130061626
vt 2.24399471282959 0.0043875002302229404
vt -0.003897114424034953 0.004900000058114529
vt -0.0022949674166738987 0.003975000232458115
vt 0.4246186316013336 0.018300000578165054
vt 6.2831854820251465 -0.03799999877810478
vt 1.5707963705062866 -0.44919317960739136
vt 3.3659920692443848 0.004832542035728693
vt -0.008083399385213852 0.00420728512108326
vt 5.831247329711914 -0.02122812718153
vt 2.356194496154785 0.0043875002302229404
vt -0.010499733500182629 -0.004207950085401535
vt 0.22439947724342346 -0.2617993950843811
vt 0.2617993950843811 -0.0339989997446537
vt 0.8975979089736938 -0.5235987901687622
vt 3.6852331161499023 0.0031054506544023752
vt -0.0032469795551151037 -0.03356366232037544
vt 3.6508424282073975 -0.0010000000474974513
vt 3.91581130027771 0.018632402643561363
vt 0.011587368324398994 -0.0005109430057927966
vt 4.306079387664795 -0.0005152432713657618
vt 6.02138614654541 -0.0339989997446537
vt 1.9954149723052979 0.0010000000474974513
vt 0.017999999225139618 -5.437388667979158e-15
vt 0.336599200963974 0.00011223334149690345
vt 0.8492372632026672 0.013696289621293545
vt 3.1415927410125732 0.0043875002302229404
vt 3.144289493560791 0.019595736637711525
vt 2.6179938316345215 -0.024429788812994957
vt 0.01794985495507717 -0.032445043325424194
vt 0.673198401927948 -0.2617993950843811
vt 1.1461776494979858 -0.0021750000305473804
vt -0.004346666391938925 0.0038146856240928173
vt 0.003913359250873327 -0.0015449495986104012
vt 0.014000000432133675 0.004000000189989805
vt 5.71176815032959 0.02099771983921528
vt 5.609986782073975 0.0056344796903431416
vt 1.5707963705062866 0.0010000000474974513
vt 1.5707963705062866 0.004000000189989805
vt 1.3089969158172607 -2.2926931950907766e-17
vt 4.450589656829834 -0.0339989997446537
vt 5.607269287109375 0.0022312055807560682
vt 0.8975979089736938 -1.0471975803375244
vt 0.04613909870386124 -0.02417522482573986
vt 1.0471975803375244 -0.0339989997446537
vt 1.3089969158172607 -0.02725616656243801
vt 1.1461776494979858 -0.0029750000685453415
vt -0.002445041900500655 -0.03394985571503639
vt 4.71238899230957 -1.3460042476654053
vt 0.0008874639752320945 0.006776239722967148
vt 0.0020501441322267056 -0.003554958151653409
vt 1.5707963705062866 -3.228648614059899e-15
vt 6.544984817504883 -0.03400000184774399
vt 4.79191780090332 0.0030429894104599953
vt 6.021647930145264 1.9941559034354064e-15
vt -0.04613909870386124 -0.02417522482573986
vt 0.673198401927948 -0.7853981852531433
vt 3.353928565979004 0.002702461089938879
vt 1.5707963705062866 -0.22479204833507538
vt 0.003897114424034953 0.00039999998989515007
vt 0.017999999225139618 -6.491382409899715e-13
vt -0.010499999858438969 0.00420728512108326
vt 1.121997356414795 -1.5707963705062866
vt 1.5707963705062866 -0.2617993950843811
vt 1.5707963705062866 -0.0021750000305473804
vt 4.163336342344337e-17 -0.0018500000005587935
vt 0.673198401927948 0.0043875002302229404
vt 5.609986782073975 -0.2617993950843811
vt 6.2831854820251465 -1.5707963705062866
vt 0.7678253054618835 0.013249999843537807
vt 3.9908299446105957 0.0034461463801562786
vt 5.161188125610352 -0.03799999877810478
vt 4.824588775634766 0.006374924443662167
vt 0.44919317960739136 0.03400000184774399
vt 0.8975979089736938 -1.3089969158172607
vt 2.0195953845977783 0.0043875002302229404
vt 3.9269907474517822 -0.02482910081744194
vt 3.1415927410125732 -0.0339989997446537
vt 0.5233886241912842 0.0043875002302229404
vt 0.2615375518798828 -1.702271780295011e-14
vt 4.71238899230957 0.019500000402331352
vt 3.1415927410125732 4.85722573273506e-17
vt 0.016828427091240883 0.0028284271247684956
vt -0.004000000189989805 1.442529364188705e-13
vt 0.8975979089736938 0.0043875002302229404
vt 0.013739426620304585 -0.0015319040976464748
vt 0.01600000075995922 0.003464101580902934
vt 0.28408530354499817 -0.029526356607675552
vt 0.017801938578486443 -0.03286776691675186
vt 5.270566940307617 0.002507403027266264
vt 0.01600000075995922 -0.03400000184774399
vt 6.02138614654541 0.03799999877810478
vt 0.0007909157429821789 0.006575755309313536
vt 0.007818019948899746 -0.0019764176104217768
vt 5.609986782073975 -0.7853981852531433
vt 0.6364583373069763 -0.02876264601945877
vt 4.71238899230957 -0.2617993950843811
vt 0.509249746799469 -0.0021750000305473804
vt 4.85722573273506e-17 -4.336808689942018e-18
vt 3.1415927410125732 -6.938893903907228e-18
vt 9.345808168446267e-17 -1.0471975803375244
vt 1.346396803855896 0.0043875002302229404
vt 1.121997356414795 -0.7853981852531433
vt 0.018867768347263336 -0.0021980623714625835
vt 1.047407627105713 0.0043875002302229404
vt 3.144289493560791 0.0024042639415711164
vt 5.385587215423584 0.0007530204020440578
vt 0.8975979089736938 -0.7853981852531433
vt 6.149843692779541 -0.02972620353102684
vt 0.0027530204970389605 -0.002436337061226368
vt 0.014181980863213539 -0.0019764176104217768
vt 6.058785915374756 -1.5707963705062866
vt 3.2505593299865723 0.0025696337688714266
vt 0.2618740499019623 -0.02955583669245243
vt 0.01980193704366684 -0.003132232464849949
vt 4.13259220123291 0.018417280167341232
vt 6.02138614654541 -0.03400000184774399
vt 0.0013249999610707164 0.004944967105984688
vt 3.5903916358947754 0.0052552674897015095
vt -0.0013249999610707164 0.004944967105984688
vt 5.834386348724365 -0.7853981852531433
vt 1.3092588186264038 0.0043875002302229404
vt 2.6179938316345215 -6.938893903907228e-18
vt 0.004000000189989805 -0.0020000000949949026
vt 2.094395160675049 -0.0339989997446537
vt 5.551115123125783e-17 0.007149999961256981
vt 4.71238899230957 -0.7853981852531433
vt 4.936788558959961 0.006337355822324753
vt 5.609986782073975 -1.3089969158172607
vt 5.71176815032959 -0.02099771983921528
vt 5.161188125610352 -1.9761556592128645e-17
vt 2.879793167114258 -0.03400000184774399
vt 0.2617993950843811 -0.03400000184774399
vt 6.02138614654541 0.03400000184774399
vt 0.0017000000225380063 0.019157499074935913
vt 4.039190769195557 -1.9761556592128645e-17
vt 1.3089969158172607 0.03400000184774399
vt 0.5235987901687622 -0.03400000184774399
vt 0.9564847350120544 0.007818019948899746
vt 0.002559703541919589 0.0019641295075416565
vt 1.121997356414795 -0.2617993950843811
vt -2.4868995751603507e-14 0.003700000001117587
vt 0.5235987901687622 0.017999999225139618
vt 3.445807456970215 0.0028205676935613155
vt 3.1415927410125732 0.019600000232458115
vt -0.010499999858438969 0.0030759144574403763
vt 0.01686776801943779 -0.03380193933844566
vt 9.345808168446267e-17 -1.3089969158172607
vt 1.121997356414795 -1.3089969158172607
vt 0.002559703541919589 0.0033358705695718527
vt 4.48798942565918 -1.9761556592128645e-17
vt -2.4868995751603507e-14 0.018300000578165054
vt 5.385587215423584 -0.7853981852531433
vt 0.012164685875177383 -0.0006424677558243275
vt 5.385587215423584 -1.0471975803375244
vt 3.5342917442321777 -0.024284418672323227
vt 1.3584870100021362 -0.0021750000305473804
vt 0.014897114597260952 -0.008197830058634281
vt 3.4033920764923096 -0.03400000184774399
vt 3.90252685546875 -0.00019999999494757503
vt 1.9954149723052979 0.00019999999494757503
vt 0.6297232508659363 0.009836660698056221
vt -0.004999733529984951 -0.004207601770758629
vt 0.05631954222917557 -0.032497480511665344
vt 0.7853981852531433 0.017999999225139618
vt 5.385604381561279 -0.020521381869912148
vt 2.094395160675049 -0.03400000184774399
vt 6.058785915374756 -0.7853981852531433
vt 5.773935794830322 0.0021750000305473804
vt 0.01759999990463257 0.006387500092387199
vt 0.0 6.938893903907228e-18
vt 0.0031819804571568966 -0.0005319805350154638
vt 4.936788558959961 -1.0471975803375244
vt 0.015035276301205158 0.003863703226670623
vt 4.937180995941162 0.03400000184774399
vt 1.0471975803375244 -0.027862178161740303
vt 0.01716698706150055 0.006637500133365393
vt 3.9269907474517822 -0.0339989997446537
vt 9.345808168446267e-17 -0.7853981852531433
vt 1.9363459047853004e-15 0.006387500092387199
vt 0.016445042565464973 -0.03394985571503639
vt 6.2831854820251465 -0.03400000184774399
vt -0.0020000000949949026 0.003464101580902934
vt 6.058785915374756 -0.03799999877810478
vt 1.8323339223861694 0.0043875002302229404
vt -0.004346666391938925 0.00148531433660537
vt 5.385745525360107 0.03400000184774399
vt 0.009835314005613327 -0.0006424677558243275
vt -0.0022949674166738987 0.0013249999610707164
vt 0.4487989544868469 -0.7853981852531433
vt 6.058785915374756 -0.2617993950843811
vt 0.01786370389163494 0.001035276218317449
vt 0.6369279623031616 0.003700000001117587
vt -0.044849786907434464 -0.03799799084663391
vt 1.442529364188705e-13 0.004000000189989805
vt -0.04710909351706505 -0.02488998882472515
vt 0.4487989544868469 0.0043875002302229404
vt 6.058785915374756 -1.3089969158172607
vt 5.161188125610352 -0.7853981852531433
vt 9.345808168446267e-17 -0.2617993950843811
vt 0.7853981852531433 -2.2926931950907766e-17
vt 0.0006169418920762837 0.0064370157197117805
vt 0.003554958151653409 -0.0020501441322267056
vt 0.0008999999845400453 0.006887500174343586
vt 0.04484907537698746 -0.02207029052078724
vt 1.3089969158172607 0.004000000189989805
vt 6.2831854820251465 0.0
vt 0.6369279623031616 0.018300000578165054
vt 5.270566940307617 0.0029750000685453415
vt 5.156702995300293 -0.02019336074590683
vt 5.609986782073975 0.00043633702443912625
vt 3.796091079711914 -0.024612389504909515
vt -0.044872771948575974 -0.02214740216732025
vt 5.497786998748779 -0.03400000184774399
vt 1.0615465641021729 0.018300000578165054
vt 5.834386348724365 3.228648614059899e-15
vt 0.0022499999031424522 -0.0012471142690628767
vt 5.759586334228516 0.03400000184774399
vt 4.405895709991455 -0.00019999999494757503
vt 2.2077243328094482 0.0010000000474974513
vt 0.0020000000949949026 -0.004000000189989805
vt 5.609986782073975 3.228648614059899e-15
vt 2.094395160675049 -6.938893903907228e-18
vt 0.019949855282902718 -0.003554958151653409
vt 1.5707963705062866 -1.3089969158172607
vt 0.007102885749191046 -0.008197830058634281
vt -0.13334175944328308 -0.02972620353102684
vt 5.773935794830322 0.0029750000685453415
vt 0.006653334014117718 -0.0042868866585195065
vt 0.5235987901687622 -2.2926931950907766e-17
vt -4.5644911461639737e-17 0.0030759144574403763
vt 1.346396803855896 -1.3089969158172607
vt 3.5903916358947754 -1.9761556592128645e-17
vt 0.6369279623031616 0.012261257506906986
vt 0.004346666391938925 0.00148531433660537
vt 3.665191411972046 -0.024429788812994957
vt 4.71238899230957 -0.03400000184774399
vt 2.2077243328094482 0.00019999999494757503
vt 1.5707963705062866 -0.026605835184454918
vt 5.058526992797852 0.020043756812810898
vt 5.385587215423584 3.228648614059899e-15
vt 1.5707963705062866 -0.0029750000685453415
vt 2.879793167114258 -6.938893903907228e-18
vt 5.002076148986816 0.0029750000685453415
vt 6.058393478393555 0.03400000184774399
vt 4.71238899230957 -0.03799999877810478
vt 5.640714645385742 -0.028746116906404495
vt -0.054166972637176514 -0.028830511495471
vt 0.018300000578165054 -0.03799999877810478
vt 0.0 -0.03400000184774399
vt 6.2831854820251465 -0.5235987901687622
vt -0.002559703541919589 0.0033358705695718527
vt 0.001873833010904491 0.004523832816630602
vt 1.4324388075692696e-06 -0.03200000151991844
vt 0.4487989544868469 -1.0471975803375244
vt 0.0007117448840290308 0.006496584042906761
vt 2.7488934993743896 -0.024284418672323227
vt 1.346396803855896 -0.7853981852531433
vt 1.346396803855896 -1.0471975803375244
vt 5.9465861320495605 0.00011223334149690345
vt 1.346396803855896 -1.6381100509800343e-14
vt 0.000850484415423125 0.006670558359473944
vt 3.7013760078566296e-15 0.03400000184774399
vt 6.058785915374756 -0.5235987901687622
vt 3.566211223602295 0.0029654980171471834
vt 0.8975979089736938 -0.2617993950843811
vt -0.00010726301843533292 -0.00864818412810564
vt -0.2617993950843811 -0.03400000184774399
vt 0.019999999552965164 -0.03799999877810478
vt 5.0188822746276855 0.0029750000685453415
vt 0.0005112604703754187 0.006400036159902811
vt 4.974188327789307 -0.03400000184774399
vt 0.2123093158006668 0.003700000001117587
vt 6.2831854820251465 -1.0471975803375244
vt -1.734723475976807e-18 5.287013888727298e-31
vt 0.0026499999221414328 0.0026499999221414328
vt 0.003700000001117587 -0.008756306022405624
vt 3.010693073272705 -0.02411464788019657
vt 0.0022499999031424522 0.006547114346176386
vt 0.019600000232458115 -0.03799999877810478
vt 0.0013249999610707164 0.0003550326800905168
vt -0.002559703541919589 0.0019641295075416565
vt -0.056319788098335266 -0.03799748048186302
vt 3.4033920764923096 -0.024178769439458847
vt -0.004999999888241291 0.00420728512108326
vt 0.22479204833507538 0.03400000184774399
vt -0.0031819804571568966 0.005831980612128973
vt -0.0026499999221414328 0.0026499999221414328
vt 0.044849786907434464 -0.03799799084663391
vt 4.71238899230957 2.8810078695401314e-17
vt -0.0006858704728074372 0.005209703464061022
vt 4.71238899230957 0.006387500092387199
vt 0.6733564734458923 0.03400000184774399
vt 0.017246447503566742 0.006533946841955185
vt 0.0031819804571568966 0.005831980612128973
vt 0.8974398970603943 0.03400000184774399
vt 4.773202419281006 0.003054432338103652
vt 1.832595705986023 -0.03400000184774399
vt 3.281066417694092 0.0026089863386005163
vt -0.0028284271247684956 0.0028284271247684956
vt 0.019563663750886917 -0.0027530204970389605
vt 5.235777854919434 2.867641266115985e-15
vt 6.2831854820251465 -1.3089969158172607
vt 5.757541656494141 0.02108752354979515
vt 0.0021980623714625835 -0.003132232464849949
vt 6.2831854820251465 -0.02207229845225811
vt 0.015346665866672993 -0.0042868866585195065
vt 1.5707963705062866 -0.5235987901687622
vt 2.356194496154785 -0.0339989997446537
vt -0.004999805241823196 -0.0030762311071157455
vt 0.6369279623031616 0.009738742373883724
vt 5.385587215423584 -1.9761556592128645e-17
vt 0.016300000250339508 0.019157499074935913
vt 0.4487989544868469 0.0001980622619157657
vt 5.834386348724365 -1.3089969158172607
vt 3.8175086975097656 -0.0009437943808734417
vt 4.936788558959961 -0.5235987901687622
vt 0.9338683485984802 -0.0021750000305473804
vt 4.71238899230957 -1.3089969158172607
vt 5.759586334228516 -0.0339989997446537
vt 1.5707963705062866 -1.3460042476654053
vt 0.4487989544868469 -1.6381100509800343e-14
vt -0.003897114424034953 0.00039999998989515007
vt 0.0006858704728074372 9.029656212078407e-05
vt 4.71238899230957 0.03400000184774399
vt 0.002400000113993883 -0.03799999877810478
vt 4.5300092697143555 -0.0002654980053193867
vt 0.007428518030792475 -0.008756306022405624
vt 0.0022949674166738987 0.003975000232458115
vt 3.3034238815307617 0.019362280145287514
vt 5.49773645401001 -0.028427407145500183
vt 2.094395160675049 -0.025349494069814682
vt 0.5233886241912842 -1.773407131864732e-14
vt 4.71238899230957 -0.026605835184454918
vt 5.522251129150391 0.0029750000685453415
vt 4.155569076538086 -0.0006785175064578652
vt 6.2831854820251465 -0.7853981852531433
vt 2.6179938316345215 -0.0339989997446537
vt 5.497786998748779 0.03400000184774399
vt 6.2831854820251465 -0.0339989997446537
vt 5.759586334228516 -0.03400000184774399
vt -0.05549592152237892 -0.029999656602740288
vt 1.1216031312942505 0.03400000184774399
vt 0.004387499764561653 1.9640079074179084e-07
vt 5.834386348724365 -0.5235987901687622
vt 5.161581993103027 0.03400000184774399
vt 0.2617993950843811 -2.2926931950907766e-17
vt 5.385587215423584 -1.5707963705062866
vt 5.235987663269043 -0.027862178161740303
vt 0.019999999552965164 -0.004000000189989805
vt 5.2314453125 0.02030259743332863
vt 5.609986782073975 -1.0471975803375244
vt -0.003949855919927359 -0.032445043325424194
vt 6.2831854820251465 -1.6381722231983628e-14
vt -0.05631954222917557 -0.032497480511665344
vt -0.004999999888241291 0.0030759144574403763
vt 0.018300000578165054 -0.0006729071610607207
vt 4.71238899230957 -0.019500000402331352
vt 4.039190769195557 0.00595116289332509
vt 2.692793607711792 0.0043875002302229404
vt 0.9598774313926697 0.01415230706334114
vt 5.497786998748779 3.960826011248884e-15
vt 5.609986782073975 -1.5707963705062866
vt 1.832595705986023 -0.0339989997446537
vt 1.4324388075692696e-06 0.03200000151991844
vt 4.71238899230957 0.0020000000949949026
vt 0.002436337061226368 -0.0027530204970389605
vt 0.0183562058955431 -7.237112367067296e-18
vt 0.01924697868525982 -0.002436337061226368
vt 0.003132232464849949 -0.0021980623714625835
vt 0.019600000232458115 -0.019500000402331352
vt 4.720917224884033 0.019513484090566635
vt 0.673198401927948 -1.0471975803375244
vt 5.497786998748779 0.03799999877810478
vt 4.720917224884033 -0.019513484090566635
vt 0.2615375518798828 0.0043875002302229404
vt 0.017999999225139618 0.006387500092387199
vt 0.8975979089736938 0.0007530204020440578
vt 5.834386348724365 0.0001980622619157657
vt 0.0043875002302229404 -1.2681086119876985e-34
vt 5.385587215423584 0.00595116289332509
vt 4.71238899230957 -1.0471975803375244
vt 2.879793167114258 -0.0339989997446537
vt 1.5707963705062866 -0.03400000184774399
vt 1.121997356414795 -0.5235987901687622
vt 3.3819992542266846 0.019261561334133148
vt 0.014571480453014374 -0.008756307885050774
vt 3.2122583389282227 0.002510012360289693
vt 5.834386348724365 -1.5707963705062866
vt 1.5707963705062866 0.0043875002302229404
vt 2.356194496154785 -0.02482910081744194
vt 4.71238899230957 -1.5707963705062866
vt 4.407477855682373 -0.00041970761958509684
vt 4.71238899230957 -0.22479204833507538
vt 0.8975979089736938 -1.6381100509800343e-14
vt 0.673198401927948 0.00043633702443912625
vt -0.0028677675873041153 -0.03380193933844566
vt 4.936788558959961 -1.3089969158172607
vt 5.385587215423584 -0.03799999877810478
vt 3.665191411972046 -0.0339989997446537
vt 6.058785915374756 -1.0471975803375244
vt 1.047407627105713 -1.660300789538792e-14
vt 3.1415927410125732 -0.024093152955174446
vt 1.5707963705062866 -1.1216031312942505
vt -0.0035636629909276962 -0.033246979117393494
vt 1.832595705986023 -0.025955505669116974
vt 0.0036437944509088993 -1.5768680501899438e-18
vt 4.603323936462402 -0.00014820137585047632
vt 2.63234281539917 0.00019999999494757503
vt 3.3659920692443848 -1.9761556592128645e-17
vt 5.235987663269043 -0.0339989997446537
vt 1.3089969158172607 0.017999999225139618
vt 1.3089969158172607 -0.03400000184774399
vt 5.161188125610352 -0.5235987901687622
vt 0.5235987901687622 0.03400000184774399
vt 0.018300000578165054 -0.008756306022405624
vt 1.7831056118011475 0.00019999999494757503
vt 0.7853981852531433 -0.028414146974682808
vt -0.004387499764561653 1.9640079074179084e-07
vt 0.2617993950843811 0.03400000184774399
vt 4.154211044311523 -0.00019999999494757503
vt 5.609986782073975 -1.9761556592128645e-17
vt 0.010999999940395355 -0.0004668499459512532
vt 5.161188125610352 0.001132232486270368
vt 0.05594648793339729 -0.030767207965254784
vt 3.2505593299865723 0.019430365413427353
vt 0.7853981852531433 0.03400000184774399
vt 3.2240395545959473 0.0194716639816761
vt 5.759586334228516 0.03799999877810478
vt 5.161188125610352 0.006189437583088875
vt 5.609986782073975 -0.03799999877810478
vt 0.0 -0.014000000432133675
vt -0.04484907537698746 -0.02207029052078724
vt 4.974188327789307 0.03799999877810478
vt 0.0020000000949949026 -0.03799999877810478
vt 4.71238899230957 -1.1216031312942505
vt 3.348315477371216 0.0026952698826789856
vt 5.161188125610352 -1.5707963705062866
vt 0.017999999225139618 -0.03200000151991844
vt 0.017464101314544678 0.0020000000949949026
vt 1.3092588186264038 -1.56687390248959e-14
vt 3.1415927410125732 -0.03400000184774399
vt 0.2617993950843811 0.017999999225139618
vt 3.15616525190627e-15 -1.5707963705062866
vt 5.501629829406738 0.020685497671365738
vt 2.8800551891326904 0.0043875002302229404
vt 1.7951958179473877 0.0043875002302229404
vt 0.054166972637176514 -0.028830511495471
vt 6.2831854820251465 4.163338989322297e-17
vt 1.0615465641021729 0.007428518030792475
vt 4.936788558959961 3.228648614059899e-15
vt 2.4200336933135986 0.00019999999494757503
vt 1.0471975803375244 0.004000000189989805
vt 1.0471975803375244 0.03400000184774399
vt 0.673198401927948 -1.6381100509800343e-14
vt 0.0022949674166738987 0.0013249999610707164
vt 2.7782716245324836e-14 0.004000000189989805
vt -0.0011646857019513845 0.006996666081249714
vt 5.235987663269043 0.03799999877810478
vt 1.5707963705062866 0.0020000000949949026
vt 0.509249746799469 -0.0029750000685453415
vt 0.00039999998989515007 0.006387500092387199
vt 0.5879590511322021 0.010404114611446857
vt 0.22439947724342346 -1.5707963705062866
vt -1.2878587085651816e-13 -0.02978706732392311
vt -0.010499805212020874 -0.003076579188928008
vt 0.0044999998062849045 0.0026499999221414328
vt -0.0006858704728074372 9.029656212078407e-05
vt 0.7853981852531433 0.0043875002302229404
vt -0.001873833010904491 0.0007761670276522636
vt 1.0471975803375244 0.017999999225139618
vt 1.0471975803375244 -0.03400000184774399
vt 0.13280895352363586 -0.029726680368185043
vt 0.58807373046875 0.011598261073231697
vt 1.3584870100021362 -0.0029750000685453415
vt 1.3089969158172607 -0.0339989997446537
vt 5.235987663269043 -0.03400000184774399
vt 0.006500000134110451 -0.005620836745947599
vt 0.22439947724342346 5.014417547499761e-05
vt 2.618204116821289 0.0043875002302229404
vt 2.7877594099812684e-14 0.017999999225139618
vt 6.2831854820251465 -0.2617993950843811
vt 3.9269907474517822 -0.03400000184774399
vt 3.1415927410125732 0.002400000113993883
vt 0.01844504103064537 -0.0020501441322267056
vt -0.0022499999031424522 -0.0012471142690628767
vt 0.673198401927948 -1.3089969158172607
vt 0.000945068895816803 -0.009063632227480412
vt 4.203139305114746 0.0183562058955431
vt -0.004000000189989805 -0.03200000151991844
vt 0.7853981852531433 -0.03400000184774399
vt -0.05622519925236702 -0.031612467020750046
vt 5.609986782073975 -0.5235987901687622
vt 6.02138614654541 -0.02956325188279152
vt 0.0011646857019513845 0.006996666081249714
vt 0.22439947724342346 -0.5235987901687622
vt 0.007102885749191046 -0.003043843200430274
vt 4.71238899230957 0.03799999877810478
vt 5.522251129150391 0.0022922807838767767
vt 4.375789642333984 0.006275266874581575
vt 5.235987663269043 0.03400000184774399
vt 1.346396803855896 0.0015549581730738282
vt 0.9338683485984802 -0.0029750000685453415
vt 0.22439947724342346 -1.6381100509800343e-14
vt 0.5235987901687622 -0.0339989997446537
vt -0.0013249999610707164 0.0003550326800905168
vt 0.673198401927948 -0.5235987901687622
vt 6.2831854820251465 0.03799999877810478
vt -0.0020000000949949026 -0.03400000184774399
vt 1.5707963705062866 -0.7853981852531433
vt 4.203139305114746 0.0036437944509088993
vt 5.405017852783203 -0.02054871991276741
vt 0.003700000001117587 -0.032499998807907104
vt 2.356194496154785 -6.938893903907228e-18
vt 2.324352851439419e-15 0.0043875002302229404
vt 5.385587215423584 -0.5235987901687622
vt -0.0011646857019513845 -0.0016966662369668484
vt 0.7853981852531433 -0.0339989997446537
vt 1.5707963705062866 0.03400000184774399
vt 0.015346665866672993 -0.006954786367714405
vt 4.71238899230957 -0.5235987901687622
vt 0.01272207498550415 -0.0008591738296672702
vt 4.0687689781188965 -0.000746146310120821
vt 1.346396803855896 -0.2617993950843811
vt 4.896328926086426 0.0029956635553389788
vt 1.121997356414795 -1.0471975803375244
vt 1.0615465641021729 0.003700000001117587
vt 0.017349999397993088 0.006454487331211567
vt 3.415562868118286 0.002781552728265524
vt 0.0174705907702446 0.006404537241905928
vt -0.045377664268016815 -0.02324141561985016
vt 2.4200336933135986 0.0010000000474974513
vt 5.385587215423584 -0.2617993950843811
vt 0.017999999225139618 -0.0020000000949949026
vt 6.060480117797852 -0.0216504018753767
vt 6.058785915374756 0.004832542035728693
vt 1.121997356414795 -1.6381100509800343e-14
vt 1.3460042476654053 0.03400000184774399
vt 0.8492372632026672 0.018300000578165054
vt 1.5707963705062866 -0.8974398970603943
vt 6.170985698699951 1.2575580512930173e-05
vt 3.778381109237671 0.018787607550621033
vt 0.01756366342306137 -0.033246979117393494
vt 4.9748215675354 0.019911332055926323
vt 1.0471975803375244 -2.2926931950907766e-17
vt 5.366379737854004 -0.02813444845378399
vt 4.936788558959961 -0.2617993950843811
vt 1.121997356414795 0.0043875002302229404
vt 0.04710909351706505 -0.02488998882472515
vt 2.63234281539917 0.0010000000474974513
vt 0.673198401927948 -1.5707963705062866
vt 5.609828948974609 0.03400000184774399
vt 5.999100208282471 -0.029526356607675552
vt 0.05489373579621315 -0.029344279319047928
vt 0.0 -1.6381722231983628e-14
vt 2.879793167114258 -0.024178769439458847
vt 4.132562160491943 0.0035779804456979036
vt 1.5707963705062866 0.017999999225139618
vt 5.834386348724365 -1.9761556592128645e-17
vt 0.003700000001117587 -0.0006729071610607207
vt 5.385587215423584 -1.3089969158172607
vt 4.936788558959961 -0.03799999877810478
vt 0.5735130906105042 0.010999999940395355
vt 3.2724924087524414 -0.02411464788019657
vt 0.22439947724342346 0.0043875002302229404
vt 2.356194496154785 -0.03400000184774399
vt 5.834386348724365 -0.2617993950843811
vt 4.71238899230957 -0.6733564734458923
vt 0.01549999974668026 -0.005620836745947599
vt 4.9372239112854 -0.019852574914693832
vt 0.8975979089736938 -1.5707963705062866
vt 0.01041263248771429 -0.0005109430057927966
vt 1.5707963705062866 0.00019999999494757503
vt 5.551115123125783e-17 0.0052999998442828655
vt 4.936788558959961 -0.7853981852531433
vt 1.346396803855896 -0.5235987901687622
vt 0.045377664268016815 -0.02324141561985016
vt 3.6853792667388916 0.018892815336585045
vt 4.188790321350098 -0.0339989997446537
vt 3.353928565979004 0.019297538325190544
vt 3.445807456970215 0.019179431721568108
vt 0.001873833010904491 0.0007761670276522636
vt 5.161188125610352 -0.2617993950843811
vt 0.2123093158006668 0.018300000578165054
vt 0.11219973862171173 1.2575580512930173e-05
vt 3.566215753555298 0.019035382196307182
vt 4.71238899230957 -0.44919317960739136
vt 6.2831854820251465 0.0043875002302229404
f 252/1 250/2 251/3
f 250/2 248/4 251/3
f 250/2 249/5 248/4
f 249/5 247/6 248/4
f 248/4 247/6 245/7
f 247/6 246/8 245/7
f 246/8 244/9 245/7
f 245/7 244/9 241/10
f 244/9 243/11 241/10
f 243/11 242/12 241/10
f 241/10 242/12 238/13
f 242/12 240/14 238/13
f 240/14 239/15 238/13
f 238/13 239/15 235/16
f 222/17 221/18 236/19
f 221/18 235/16 236/19
f 236/19 235/16 237/20
f 235/16 239/15 237/20
f 222/21 206/22 221/23
f 206/22 205/24 221/23
f 202/25 201/26 219/27
f 201/26 217/28 219/27
f 219/27 217/28 220/29
f 220/29 217/28 216/30
f 217/28 218/31 216/30
f 216/30 218/31 215/32
f 218/31 214/33 215/32
f 215/32 214/33 213/34
f 214/33 212/35 213/34
f 213/34 212/35 211/36
f 212/35 210/37 211/36
f 211/36 210/37 209/38
f 210/37 208/39 209/38
f 209/38 208/39 207/40
f 208/39 205/41 207/40
f 207/40 205/41 206/42
f 134/43 159/44 200/45
f 204/46 203/47 156/48
f 203/47 153/49 156/48
f 159/44 160/50 201/51
f 160/50 152/52 201/51
f 201/51 152/52 203/47
f 152/52 151/53 203/47
f 203/47 151/53 153/49
f 195/54 201/51 194/55
f 201/51 202/56 194/55
f 200/45 159/44 199/57
f 195/54 196/58 201/51
f 196/58 198/59 201/51
f 201/51 198/59 159/44
f 198/59 197/60 159/44
f 159/44 197/60 199/57
f 163/61 124/62 123/63
f 200/45 172/64 134/43
f 172/64 163/61 134/43
f 134/43 163/61 126/65
f 163/61 123/63 126/65
f 318/66 307/67 308/68
f 318/66 308/68 317/69
f 308/68 306/70 317/69
f 317/69 306/70 316/71
f 306/70 302/72 316/71
f 316/71 302/72 315/73
f 302/72 301/74 315/73
f 315/73 301/74 314/75
f 301/74 300/76 314/75
f 314/75 300/76 313/77
f 313/77 300/76 311/78
f 300/76 309/79 311/78
f 311/78 309/79 312/80
f 312/80 309/79 310/81
f 309/79 203/82 310/81
f 310/81 203/82 204/25
f 318/83 319/84 307/23
f 319/84 297/85 307/23
f 319/66 338/86 297/87
f 338/86 298/88 297/87
f 338/86 337/89 298/88
f 337/89 336/90 298/88
f 298/88 336/90 299/91
f 336/90 335/92 299/91
f 335/92 334/93 299/91
f 299/91 334/93 305/94
f 334/93 333/95 305/94
f 333/95 332/96 305/94
f 305/94 332/96 303/97
f 332/96 331/98 303/97
f 331/98 330/99 303/97
f 303/97 330/99 304/100
f 296/1 295/3 328/101
f 295/3 304/100 328/101
f 328/101 304/100 329/102
f 304/100 330/99 329/102
f 251/103 295/23 252/104
f 295/23 296/105 252/104
f 71/106 68/107 110/108
f 110/108 68/107 109/109
f 68/107 60/110 109/109
f 109/109 60/110 108/111
f 60/110 59/112 108/111
f 108/111 59/112 107/113
f 59/112 67/114 107/113
f 107/113 67/114 106/115
f 67/114 66/116 106/115
f 106/115 66/116 105/117
f 66/116 65/118 105/117
f 105/117 65/118 104/119
f 104/119 65/118 102/120
f 65/118 64/121 102/120
f 102/120 64/121 103/122
f 103/122 64/121 100/123
f 64/121 58/124 100/123
f 100/123 58/124 101/125
f 101/125 58/124 98/126
f 58/124 57/127 98/126
f 98/126 57/127 99/128
f 99/128 57/127 96/129
f 57/127 56/130 96/129
f 96/129 56/130 97/131
f 97/131 56/130 94/132
f 56/130 55/133 94/132
f 94/132 55/133 95/134
f 95/134 55/133 93/135
f 55/133 63/136 93/135
f 93/135 63/136 92/137
f 63/136 54/138 92/137
f 92/137 54/138 91/139
f 54/138 51/140 91/139
f 91/139 51/140 90/141
f 51/140 50/142 90/141
f 90/141 50/142 89/143
f 50/142 49/144 89/143
f 89/143 49/144 88/145
f 49/144 53/146 88/145
f 88/145 53/146 87/147
f 87/147 53/146 85/148
f 53/146 52/149 85/148
f 85/148 52/149 86/150
f 86/150 52/149 83/151
f 52/149 62/152 83/151
f 83/151 62/152 84/153
f 61/154 81/155 62/152
f 81/155 82/156 62/152
f 62/152 82/156 84/153
f 70/157 77/158 72/159
f 77/158 79/160 72/159
f 72/159 79/160 61/154
f 79/160 80/161 61/154
f 61/154 80/161 81/155
f 69/162 75/163 70/164
f 75/163 78/165 70/164
f 70/164 78/165 77/166
f 110/108 74/167 71/106
f 74/167 73/168 71/106
f 71/106 73/168 69/162
f 73/168 76/169 69/162
f 69/162 76/169 75/163
f 124/170 112/171 123/172
f 112/171 111/173 123/172
f 183/174 194/175 202/176
f 320/177 204/178 161/179
f 204/178 156/180 161/179
f 255/181 254/182 224/183
f 202/176 224/183 183/174
f 224/183 254/182 183/174
f 183/174 254/182 161/179
f 254/182 326/184 161/179
f 161/179 326/184 320/177
f 259/185 258/186 257/187
f 259/185 257/187 260/188
f 260/188 257/187 224/183
f 257/187 256/189 224/183
f 224/183 256/189 255/181
f 326/184 325/190 320/177
f 325/190 323/191 320/177
f 320/177 323/191 324/192
f 324/192 321/193 320/177
f 321/193 322/194 320/177
f 320/177 322/194 327/195
f 176/196 172/197 174/198
f 172/197 173/199 174/198
f 176/196 175/200 172/197
f 175/200 171/201 172/197
f 172/197 171/201 168/202
f 165/203 164/204 172/197
f 164/204 162/205 172/197
f 172/197 162/205 163/206
f 168/202 167/207 172/197
f 167/207 166/208 172/197
f 172/197 166/208 165/203
f 132/209 137/210 134/211
f 137/210 135/212 134/211
f 135/212 136/213 134/211
f 134/211 136/213 138/214
f 134/211 126/215 125/216
f 125/216 131/217 134/211
f 131/217 130/218 134/211
f 134/211 130/218 129/219
f 129/219 128/220 134/211
f 128/220 127/221 134/211
f 134/211 127/221 132/209
f 110/222 122/223 74/224
f 122/223 121/225 74/224
f 119/226 76/227 121/225
f 76/227 73/228 121/225
f 121/225 73/228 74/224
f 115/229 118/230 82/231
f 82/231 81/232 115/229
f 81/232 80/233 115/229
f 115/229 80/233 79/234
f 79/234 77/235 120/236
f 77/235 78/237 120/236
f 120/236 78/237 119/226
f 78/237 75/238 119/226
f 119/226 75/238 76/227
f 116/239 117/240 85/241
f 85/241 86/242 116/239
f 86/242 83/243 116/239
f 116/239 83/243 118/230
f 83/243 84/244 118/230
f 118/230 84/244 82/231
f 79/234 120/236 115/229
f 120/236 114/245 115/229
f 115/229 114/245 113/246
f 114/245 111/247 113/246
f 113/246 111/247 112/248
f 85/249 117/250 87/251
f 117/250 88/252 87/251
f 122/253 110/254 109/255
f 170/256 90/257 117/250
f 90/257 89/258 117/250
f 117/250 89/258 88/252
f 109/255 108/259 122/253
f 108/259 107/260 122/253
f 122/253 107/260 133/261
f 101/262 98/263 148/264
f 98/263 99/265 148/264
f 148/264 99/265 169/266
f 99/265 96/267 169/266
f 102/268 103/269 148/264
f 103/269 100/270 148/264
f 148/264 100/270 101/262
f 96/267 97/271 169/266
f 97/271 94/272 169/266
f 169/266 94/272 95/273
f 107/260 106/274 133/261
f 106/274 105/275 133/261
f 133/261 105/275 148/264
f 105/275 104/276 148/264
f 148/264 104/276 102/268
f 95/273 93/277 169/266
f 93/277 92/278 169/266
f 169/266 92/278 170/256
f 92/278 91/279 170/256
f 170/256 91/279 90/257
f 179/280 183/281 155/282
f 186/283 142/284 187/285
f 142/284 144/286 187/285
f 187/285 144/286 188/287
f 144/286 145/288 188/287
f 188/287 145/288 189/289
f 145/288 146/290 189/289
f 189/289 146/290 190/291
f 146/290 147/292 190/291
f 190/291 147/292 191/293
f 147/292 148/294 191/293
f 191/293 148/294 169/295
f 184/296 140/297 186/283
f 140/297 139/298 186/283
f 186/283 139/298 142/284
f 185/299 150/300 184/296
f 150/300 149/301 184/296
f 184/296 149/301 140/297
f 161/302 158/303 183/281
f 158/303 157/304 183/281
f 183/281 157/304 155/282
f 185/299 181/305 150/300
f 181/305 180/306 150/300
f 150/300 180/306 154/307
f 180/306 182/308 154/307
f 182/308 177/309 154/307
f 154/307 177/309 155/282
f 177/309 178/310 155/282
f 155/282 178/310 179/280
f 111/311 125/312 123/313
f 125/312 126/314 123/313
f 326/315 350/316 355/317
f 350/316 351/318 356/319
f 352/320 353/321 357/322
f 354/323 296/324 328/325
f 354/323 328/325 358/326
f 328/325 329/327 358/326
f 358/326 329/327 359/328
f 329/327 330/329 359/328
f 330/329 331/330 359/328
f 359/328 331/330 360/331
f 331/330 332/332 360/331
f 332/332 333/333 360/331
f 360/331 333/333 361/334
f 333/333 334/335 361/334
f 334/335 335/336 361/334
f 361/334 335/336 362/337
f 338/338 363/339 337/340
f 363/339 362/337 337/340
f 337/340 362/337 336/341
f 362/337 335/336 336/341
f 338/338 319/342 349/343
f 338/338 349/343 363/339
f 349/343 340/344 363/339
f 363/339 340/344 339/345
f 339/345 364/346 363/339
f 364/346 365/347 363/339
f 363/339 365/347 362/337
f 365/347 366/348 362/337
f 362/337 366/348 361/334
f 366/348 367/349 361/334
f 361/334 367/349 360/331
f 367/349 368/350 360/331
f 360/331 368/350 359/328
f 368/350 357/322 359/328
f 359/328 357/322 358/326
f 357/322 353/321 358/326
f 358/326 353/321 354/323
f 352/320 357/322 369/351
f 357/322 368/350 369/351
f 369/351 368/350 370/352
f 368/350 367/349 370/352
f 370/352 367/349 371/353
f 367/349 366/348 371/353
f 371/353 366/348 372/354
f 366/348 365/347 372/354
f 372/354 365/347 373/355
f 365/347 364/346 373/355
f 373/355 364/346 374/356
f 339/345 342/357 364/346
f 342/357 341/358 364/346
f 364/346 341/358 374/356
f 341/358 343/359 374/356
f 374/356 343/359 344/360
f 344/360 375/361 374/356
f 375/361 376/362 374/356
f 374/356 376/362 373/355
f 376/362 377/363 373/355
f 373/355 377/363 372/354
f 377/363 378/364 372/354
f 372/354 378/364 371/353
f 378/364 379/365 371/353
f 371/353 379/365 370/352
f 379/365 356/319 370/352
f 370/352 356/319 369/351
f 356/319 351/318 369/351
f 369/351 351/318 352/320
f 350/316 356/319 355/317
f 356/319 379/365 355/317
f 355/317 379/365 380/366
f 379/365 378/364 380/366
f 380/366 378/364 381/367
f 378/364 377/363 381/367
f 381/367 377/363 382/368
f 377/363 376/362 382/368
f 382/368 376/362 383/369
f 376/362 375/361 383/369
f 383/369 375/361 384/370
f 344/360 346/371 375/361
f 346/371 345/372 375/361
f 375/361 345/372 384/370
f 345/372 348/373 384/370
f 384/370 348/373 347/374
f 326/315 355/317 325/375
f 355/317 380/366 325/375
f 325/375 380/366 323/376
f 380/366 381/367 323/376
f 323/376 381/367 324/377
f 381/367 382/368 324/377
f 324/377 382/368 321/378
f 382/368 383/369 321/378
f 321/378 383/369 322/379
f 383/369 384/370 322/379
f 322/379 384/370 327/380
f 384/370 347/374 327/380
f 327/380 347/374 320/381
f 252/382 296/383 354/384
f 252/382 354/384 264/385
f 354/384 353/386 264/385
f 264/385 353/386 263/387
f 353/386 352/388 263/387
f 263/387 352/388 262/389
f 352/388 351/390 262/389
f 262/389 351/390 261/391
f 351/390 350/392 261/391
f 261/391 350/392 253/393
f 350/392 326/394 253/393
f 253/393 326/394 254/395
f 209/396 207/397 233/398
f 207/397 206/399 233/398
f 233/398 206/399 222/400
f 233/398 234/401 209/396
f 234/401 231/402 209/396
f 209/396 231/402 211/403
f 231/402 232/404 211/403
f 232/404 229/405 211/403
f 211/403 229/405 213/406
f 229/405 230/407 213/406
f 230/407 228/408 213/406
f 228/408 227/409 213/406
f 213/406 227/409 215/410
f 227/409 225/411 215/410
f 215/410 225/411 216/412
f 225/411 226/413 216/412
f 216/412 226/413 220/414
f 226/413 223/415 220/414
f 220/414 223/415 219/416
f 223/415 224/417 219/416
f 219/416 224/417 202/418
f 233/419 222/420 236/421
f 231/422 234/423 265/424
f 234/423 233/419 265/424
f 233/419 236/421 265/424
f 236/421 237/425 265/424
f 265/424 237/425 266/426
f 237/425 239/427 266/426
f 239/427 240/428 266/426
f 266/426 240/428 267/429
f 240/428 242/430 267/429
f 267/429 242/430 268/431
f 242/430 243/432 268/431
f 243/432 244/433 268/431
f 244/433 246/434 268/431
f 268/431 246/434 269/435
f 246/434 247/436 269/435
f 247/436 249/437 269/435
f 269/435 249/437 270/438
f 249/437 250/439 270/438
f 250/439 252/440 270/438
f 270/438 252/440 264/441
f 229/442 232/443 271/444
f 232/443 231/422 271/444
f 231/422 265/424 271/444
f 265/424 266/426 271/444
f 271/444 266/426 272/445
f 266/426 267/429 272/445
f 272/445 267/429 273/446
f 267/429 268/431 273/446
f 273/446 268/431 274/447
f 268/431 269/435 274/447
f 274/447 269/435 275/448
f 269/435 270/438 275/448
f 275/448 270/438 276/449
f 270/438 264/441 276/449
f 276/449 264/441 263/450
f 228/451 230/452 277/453
f 230/452 229/442 277/453
f 229/442 271/444 277/453
f 271/444 272/445 277/453
f 277/453 272/445 278/454
f 272/445 273/446 278/454
f 278/454 273/446 279/455
f 273/446 274/447 279/455
f 279/455 274/447 280/456
f 274/447 275/448 280/456
f 280/456 275/448 281/457
f 275/448 276/449 281/457
f 281/457 276/449 282/458
f 276/449 263/450 282/458
f 282/458 263/450 262/459
f 225/460 227/461 283/462
f 227/461 228/451 283/462
f 228/451 277/453 283/462
f 277/453 278/454 283/462
f 283/462 278/454 284/463
f 278/454 279/455 284/463
f 284/463 279/455 285/464
f 279/455 280/456 285/464
f 285/464 280/456 286/465
f 280/456 281/457 286/465
f 286/465 281/457 287/466
f 281/457 282/458 287/466
f 287/466 282/458 288/467
f 282/458 262/459 288/467
f 288/467 262/459 261/468
f 223/469 226/470 289/471
f 226/470 225/460 289/471
f 225/460 283/462 289/471
f 283/462 284/463 289/471
f 289/471 284/463 290/472
f 284/463 285/464 290/472
f 290/472 285/464 291/473
f 285/464 286/465 291/473
f 291/473 286/465 292/474
f 286/465 287/466 292/474
f 292/474 287/466 293/475
f 287/466 288/467 293/475
f 293/475 288/467 294/476
f 288/467 261/468 294/476
f 294/476 261/468 253/477
f 260/478 224/479 223/469
f 223/469 289/471 260/478
f 289/471 290/472 260/478
f 260/478 290/472 259/480
f 290/472 291/473 259/480
f 259/480 291/473 258/481
f 291/473 292/474 258/481
f 258/481 292/474 257/482
f 292/474 293/475 257/482
f 257/482 293/475 256/483
f 293/475 294/476 256/483
f 256/483 294/476 255/484
f 294/476 253/477 255/484
f 255/484 253/477 254/485
f 7/486 50/487 8/488
f 50/487 51/489 8/488
f 8/488 51/489 9/490
f 51/489 54/491 9/490
f 9/490 54/491 10/492
f 54/491 63/493 10/492
f 10/492 63/493 11/494
f 63/493 55/495 11/494
f 11/494 55/495 12/496
f 55/495 56/497 12/496
f 12/496 56/497 13/498
f 56/497 57/499 13/498
f 13/498 57/499 14/500
f 57/499 58/501 14/500
f 14/500 58/501 15/502
f 58/501 64/503 15/502
f 15/502 64/503 16/504
f 64/503 65/505 16/504
f 16/504 65/505 17/506
f 65/505 66/507 17/506
f 17/506 66/507 18/508
f 66/507 67/509 18/508
f 18/508 67/509 19/510
f 67/509 59/511 19/510
f 19/510 59/511 20/512
f 59/511 60/513 20/512
f 20/512 60/513 21/514
f 60/513 68/515 21/514
f 21/514 68/515 22/516
f 68/515 71/517 22/516
f 22/516 71/517 23/518
f 71/517 69/519 23/518
f 23/518 69/519 24/520
f 69/519 70/521 24/520
f 24/520 70/521 1/522
f 70/521 72/523 1/522
f 1/522 72/523 2/524
f 72/523 61/525 2/524
f 2/524 61/525 3/526
f 61/525 62/527 3/526
f 3/526 62/527 4/528
f 62/527 52/529 4/528
f 4/528 52/529 5/530
f 52/529 53/531 5/530
f 5/530 53/531 6/532
f 53/531 49/533 6/532
f 6/532 49/533 7/486
f 49/533 50/487 7/486
f 26/534 2/154 25/535
f 2/154 3/152 25/535
f 25/535 3/152 27/536
f 3/152 4/149 27/536
f 27/536 4/149 28/537
f 4/149 5/146 28/537
f 28/537 5/146 29/538
f 5/146 6/144 29/538
f 29/538 6/144 30/539
f 6/144 7/142 30/539
f 30/539 7/142 31/540
f 7/142 8/140 31/540
f 31/540 8/140 32/541
f 8/140 9/138 32/541
f 32/541 9/138 33/542
f 9/138 10/136 33/542
f 33/542 10/136 34/543
f 10/136 11/133 34/543
f 34/543 11/133 35/544
f 11/133 12/130 35/544
f 35/544 12/130 36/545
f 12/130 13/127 36/545
f 36/545 13/127 37/546
f 13/127 14/124 37/546
f 37/546 14/124 38/547
f 14/124 15/121 38/547
f 38/547 15/121 39/548
f 15/121 16/118 39/548
f 39/548 16/118 40/549
f 16/118 17/116 40/549
f 40/549 17/116 41/550
f 17/116 18/114 41/550
f 41/550 18/114 42/551
f 18/114 19/112 42/551
f 42/551 19/112 43/552
f 19/112 20/110 43/552
f 43/552 20/110 44/553
f 20/110 21/107 44/553
f 44/553 21/107 45/554
f 21/107 22/106 45/554
f 45/554 22/106 46/555
f 22/106 23/162 46/555
f 46/555 23/162 47/556
f 23/162 24/164 47/556
f 47/556 24/164 48/557
f 24/164 1/558 48/557
f 48/557 1/558 26/559
f 1/558 2/560 26/559
f 204/561 320/562 310/563
f 320/562 347/564 310/563
f 346/565 314/566 345/567
f 314/566 313/568 345/567
f 345/567 313/568 348/569
f 313/568 311/570 348/569
f 348/569 311/570 347/564
f 311/570 312/571 347/564
f 347/564 312/571 310/563
f 346/565 344/572 314/566
f 344/572 343/573 314/566
f 314/566 343/573 315/574
f 343/573 341/575 315/574
f 315/574 341/575 316/576
f 341/575 342/577 316/576
f 342/577 339/578 316/576
f 316/576 339/578 317/579
f 339/578 340/580 317/579
f 340/580 349/581 317/579
f 349/581 319/582 317/579
f 317/579 319/582 318/583
f 134/584 138/585 159/586
f 138/585 143/587 159/586
f 159/586 143/587 160/588
f 143/587 141/589 160/588
f 160/588 141/589 152/590
f 153/591 157/592 156/593
f 157/592 158/594 156/593
f 156/593 158/594 161/595
f 151/596 154/597 153/591
f 154/597 155/598 153/591
f 153/591 155/598 157/592
f 141/589 140/599 152/590
f 140/599 149/600 152/590
f 152/590 149/600 151/596
f 149/600 150/601 151/596
f 151/596 150/601 154/597
f 173/602 172/603 200/604
f 173/602 200/604 192/605
f 200/604 199/606 192/605
f 192/605 199/606 193/607
f 199/606 197/608 193/607
f 193/607 197/608 184/609
f 180/610 181/611 197/608
f 181/611 185/612 197/608
f 197/608 185/612 184/609
f 197/608 198/613 180/610
f 198/613 196/614 180/610
f 180/610 196/614 182/615
f 182/615 196/614 177/616
f 196/614 195/617 177/616
f 177/616 195/617 178/618
f 178/618 195/617 179/619
f 195/617 194/620 179/619
f 179/619 194/620 183/621
f 175/622 191/623 171/624
f 191/623 169/625 171/624
f 171/624 169/625 170/626
f 187/627 188/628 176/629
f 188/628 189/630 176/629
f 176/629 189/630 175/622
f 189/630 190/631 175/622
f 175/622 190/631 191/623
f 193/632 184/633 186/634
f 176/629 174/635 187/627
f 174/635 173/636 187/627
f 187/627 173/636 186/634
f 173/636 192/637 186/634
f 186/634 192/637 193/632
f 171/638 170/639 168/640
f 170/639 117/641 168/640
f 168/642 117/643 116/644
f 168/642 116/644 167/645
f 116/644 118/646 167/645
f 167/645 118/646 166/647
f 118/646 115/648 166/647
f 166/647 115/648 165/649
f 115/648 113/650 165/649
f 165/649 113/650 164/651
f 113/650 112/652 164/651
f 164/651 112/652 162/653
f 163/654 162/655 124/656
f 162/655 112/657 124/656
f 132/658 133/659 148/660
f 132/658 148/660 137/661
f 148/660 147/662 137/661
f 147/662 146/663 137/661
f 137/661 146/663 135/664
f 142/665 136/666 144/667
f 136/666 135/664 144/667
f 144/667 135/664 145/668
f 135/664 146/663 145/668
f 140/669 141/670 139/671
f 141/670 143/672 139/671
f 139/671 143/672 142/665
f 143/672 138/673 142/665
f 142/665 138/673 136/666
f 133/674 132/675 122/676
f 132/675 127/677 122/676
f 125/678 111/679 114/680
f 125/678 114/680 131/681
f 114/680 120/682 131/681
f 131/681 120/682 130/683
f 120/682 119/684 130/683
f 130/683 119/684 129/685
f 119/684 121/686 129/685
f 129/685 121/686 128/687
f 121/686 122/688 128/687
f 128/687 122/688 127/689
